<?xml version="1.0" encoding="UTF-8"?>
<!DOCTYPE svg PUBLIC "-//W3C//DTD SVG 1.1//EN" "http://www.w3.org/Graphics/SVG/1.1/DTD/svg11.dtd">
<svg xmlns="http://www.w3.org/2000/svg" version="1.1" width="6227px" height="2968px" style="shape-rendering:geometricPrecision; text-rendering:geometricPrecision; image-rendering:optimizeQuality; fill-rule:evenodd; clip-rule:evenodd" xmlns:xlink="http://www.w3.org/1999/xlink">
<g><path style="opacity:0.996" fill="#28333a" d="M -0.5,-0.5 C 884.167,-0.5 1768.83,-0.5 2653.5,-0.5C 2683.09,5.93436 2699.92,24.2677 2704,54.5C 2708.32,83.3363 2698.82,106.17 2675.5,123C 2669.73,125.925 2663.73,128.258 2657.5,130C 2639.53,131.234 2621.53,131.9 2603.5,132C 2570.44,139.063 2550.94,159.229 2545,192.5C 2544.33,253.5 2544.33,314.5 2545,375.5C 2549.98,405.816 2567.14,425.649 2596.5,435C 2606.41,436.884 2616.41,437.884 2626.5,438C 2672.86,447.361 2698.69,475.527 2704,522.5C 2704.67,1169.17 2704.67,1815.83 2704,2462.5C 2699.25,2505.51 2676.08,2533.01 2634.5,2545C 2620.25,2547.01 2605.92,2548.01 2591.5,2548C 2560.89,2554.28 2542.72,2572.78 2537,2603.5C 2536.33,2664.83 2536.33,2726.17 2537,2787.5C 2541.07,2809.57 2552.9,2826.07 2572.5,2837C 2578.93,2839.81 2585.6,2841.81 2592.5,2843C 2614.2,2843.08 2635.87,2843.75 2657.5,2845C 2684.78,2852.61 2700.28,2870.45 2704,2898.5C 2704.15,2934.35 2686.65,2955.85 2651.5,2963C 1767.5,2963.5 883.5,2963.67 -0.5,2963.5C -0.5,2772.17 -0.5,2580.83 -0.5,2389.5C 827.5,2389.67 1655.5,2389.5 2483.5,2389C 2508.91,2384.26 2523.41,2369.09 2527,2343.5C 2527.17,2056.17 2527.33,1768.83 2527.5,1481.5C 2527.33,1194.17 2527.17,906.833 2527,619.5C 2523.61,594.781 2509.78,579.614 2485.5,574C 1656.83,573.5 828.167,573.333 -0.5,573.5C -0.5,382.167 -0.5,190.833 -0.5,-0.5 Z M 190.5,135.5 C 265.167,135.333 339.834,135.5 414.5,136C 443.391,142.274 459.558,160.107 463,189.5C 463.667,256.167 463.667,322.833 463,389.5C 460.333,413.679 447.833,430.512 425.5,440C 421.277,441.472 416.943,442.472 412.5,443C 339.167,443.667 265.833,443.667 192.5,443C 164.565,438.398 147.732,422.232 142,394.5C 141.333,324.5 141.333,254.5 142,184.5C 147.707,157.627 163.874,141.293 190.5,135.5 Z M 787.5,135.5 C 862.167,135.333 936.834,135.5 1011.5,136C 1037.23,141.395 1053.06,156.895 1059,182.5C 1059.67,253.833 1059.67,325.167 1059,396.5C 1052.52,422.65 1036.02,438.15 1009.5,443C 936.167,443.667 862.833,443.667 789.5,443C 761.99,438.489 745.156,422.656 739,395.5C 738.333,324.833 738.333,254.167 739,183.5C 745.132,157.2 761.299,141.2 787.5,135.5 Z M 1383.5,135.5 C 1458.5,135.333 1533.5,135.5 1608.5,136C 1634.34,141.842 1650.18,157.676 1656,183.5C 1656.67,254.167 1656.67,324.833 1656,395.5C 1649.85,422.652 1633.01,438.485 1605.5,443C 1532.5,443.667 1459.5,443.667 1386.5,443C 1358.99,438.492 1342.16,422.659 1336,395.5C 1335.33,324.5 1335.33,253.5 1336,182.5C 1342.45,157.213 1358.29,141.546 1383.5,135.5 Z M 1980.5,135.5 C 2055.17,135.333 2129.83,135.5 2204.5,136C 2231.33,141.5 2247.5,157.667 2253,184.5C 2253.67,254.5 2253.67,324.5 2253,394.5C 2247.27,422.232 2230.44,438.398 2202.5,443C 2129.17,443.667 2055.83,443.667 1982.5,443C 1952.04,436.877 1935.21,418.377 1932,387.5C 1931.03,318.814 1931.37,250.147 1933,181.5C 1939.27,156.143 1955.1,140.81 1980.5,135.5 Z M 188.5,2541.5 C 264.167,2541.33 339.834,2541.5 415.5,2542C 444.033,2548.53 459.866,2566.37 463,2595.5C 463.667,2662.17 463.667,2728.83 463,2795.5C 460.459,2818.7 448.626,2835.2 427.5,2845C 421.71,2847.28 415.71,2848.61 409.5,2849C 338.167,2849.67 266.833,2849.67 195.5,2849C 165.494,2845.59 147.661,2829.09 142,2799.5C 141.333,2729.83 141.333,2660.17 142,2590.5C 147.463,2564.54 162.963,2548.21 188.5,2541.5 Z M 785.5,2541.5 C 861.167,2541.33 936.834,2541.5 1012.5,2542C 1038.03,2547.53 1053.53,2563.03 1059,2588.5C 1059.67,2659.83 1059.67,2731.17 1059,2802.5C 1052.01,2830.49 1034.18,2845.99 1005.5,2849C 934.5,2849.67 863.5,2849.67 792.5,2849C 762.946,2845.78 745.113,2829.61 739,2800.5C 738.333,2730.17 738.333,2659.83 739,2589.5C 744.233,2563.43 759.733,2547.43 785.5,2541.5 Z M 1382.5,2541.5 C 1458.17,2541.33 1533.83,2541.5 1609.5,2542C 1635,2547.5 1650.5,2563 1656,2588.5C 1656.67,2659.5 1656.67,2730.5 1656,2801.5C 1649.44,2830.06 1631.61,2845.9 1602.5,2849C 1531.5,2849.67 1460.5,2849.67 1389.5,2849C 1360.37,2845.87 1342.53,2830.03 1336,2801.5C 1335.33,2730.5 1335.33,2659.5 1336,2588.5C 1341.68,2562.99 1357.18,2547.32 1382.5,2541.5 Z M 1979.5,2541.5 C 2055.17,2541.33 2130.83,2541.5 2206.5,2542C 2226.24,2546.07 2240.41,2557.24 2249,2575.5C 2250.74,2580.05 2252.07,2584.72 2253,2589.5C 2253.67,2659.83 2253.67,2730.17 2253,2800.5C 2246.71,2829.39 2228.88,2845.56 2199.5,2849C 2128.17,2849.67 2056.83,2849.67 1985.5,2849C 1953.41,2844.24 1935.57,2825.74 1932,2793.5C 1931.03,2724.81 1931.37,2656.15 1933,2587.5C 1939.13,2562.54 1954.63,2547.2 1979.5,2541.5 Z"/></g>
<g><path style="opacity:0.997" fill="#ec1c23" d="M 3003.5,7.5 C 3107.17,7.33334 3210.83,7.5 3314.5,8C 3320.55,9.77387 3325.72,12.9405 3330,17.5C 3542.22,451.332 3754.72,884.999 3967.5,1318.5C 4169.62,885.662 4371.45,452.662 4573,19.5C 4577.88,13.6241 4584.05,9.79073 4591.5,8C 4693.5,7.33333 4795.5,7.33333 4897.5,8C 4906.66,9.99326 4912.5,15.4933 4915,24.5C 4915.5,467.833 4915.67,911.167 4915.5,1354.5C 4802.83,1354.5 4690.17,1354.5 4577.5,1354.5C 4577.67,1167.5 4577.5,980.5 4577,793.5C 4426,1096.17 4275,1398.83 4124,1701.5C 4120.46,1706.02 4115.96,1709.19 4110.5,1711C 4014.78,1711.99 3919.11,1711.66 3823.5,1710C 3818.79,1707.95 3814.62,1705.12 3811,1701.5C 3650.92,1391.01 3490.59,1080.68 3330,770.5C 3330,1103.21 3329.33,1435.88 3328,1768.5C 3323.97,1775.27 3318.13,1779.77 3310.5,1782C 3208.5,1782.67 3106.5,1782.67 3004.5,1782C 2995.59,1780.02 2990.42,1774.52 2989,1765.5C 2988.33,1185.17 2988.33,604.833 2989,24.5C 2990.5,15.8434 2995.33,10.1767 3003.5,7.5 Z"/></g>
<g><path style="opacity:0.998" fill="#ec1c23" d="M 6226.5,503.5 C 6226.5,527.5 6226.5,551.5 6226.5,575.5C 6214.46,781.62 6114.13,925.786 5925.5,1008C 5837.05,1044.09 5745.05,1064.09 5649.5,1068C 5554.17,1068.5 5458.83,1068.67 5363.5,1068.5C 5364,1302.89 5363.5,1537.22 5362,1771.5C 5358.96,1776.88 5354.46,1780.38 5348.5,1782C 5248.17,1782.67 5147.83,1782.67 5047.5,1782C 5040.14,1779.31 5034.64,1774.48 5031,1767.5C 5030.5,1424.83 5030.33,1082.17 5030.5,739.5C 5233.83,739.667 5437.17,739.5 5640.5,739C 5682.69,738.246 5723.69,730.912 5763.5,717C 5845.53,686.641 5887.19,627.641 5888.5,540C 5888.68,466.665 5857.35,411.665 5794.5,375C 5748.79,351.07 5700.12,337.737 5648.5,335C 5442.5,334.5 5236.5,334.333 5030.5,334.5C 5030.33,230.499 5030.5,126.499 5031,22.5C 5034.1,15.5196 5039.27,10.6863 5046.5,8C 5251.83,7.33333 5457.17,7.33333 5662.5,8C 5752.71,11.9737 5839.71,30.6403 5923.5,64C 6095.29,135.661 6194.46,263.828 6221,448.5C 6223.23,466.947 6225.06,485.28 6226.5,503.5 Z"/></g>
<g><path style="opacity:0.997" fill="#f58712" d="M 1318.5,1018.5 C 1319.53,1017.63 1320.19,1016.46 1320.5,1015C 1317.75,1012.16 1315.75,1008.83 1314.5,1005C 1317.01,1000.86 1319.84,997.024 1323,993.5C 1323.33,991.153 1323.17,988.819 1322.5,986.5C 1327.51,986.334 1332.51,986.501 1337.5,987C 1339.08,988.828 1340.41,990.828 1341.5,993C 1338.97,994.033 1337.3,995.867 1336.5,998.5C 1337.81,1002.42 1338.81,1006.42 1339.5,1010.5C 1339.11,1013.78 1337.78,1016.61 1335.5,1019C 1340.1,1020.87 1344.77,1022.53 1349.5,1024C 1352.72,1027.95 1354.72,1032.45 1355.5,1037.5C 1350.73,1042.88 1344.73,1045.55 1337.5,1045.5C 1337.42,1040.05 1339.76,1035.89 1344.5,1033C 1336.6,1034.19 1330.1,1038.03 1325,1044.5C 1320.29,1051.42 1315.46,1058.25 1310.5,1065C 1312.1,1065.27 1313.6,1065.77 1315,1066.5C 1317,1071.17 1319,1075.83 1321,1080.5C 1322,1081.5 1323,1082.5 1324,1083.5C 1324.8,1074.18 1327.13,1065.18 1331,1056.5C 1336.18,1050.41 1342.52,1047.08 1350,1046.5C 1353.15,1052.49 1354.15,1058.82 1353,1065.5C 1351.88,1067.62 1350.38,1069.46 1348.5,1071C 1334.35,1076.46 1329.85,1086.29 1335,1100.5C 1336.46,1098.04 1338.29,1095.87 1340.5,1094C 1347.49,1090.28 1354.82,1087.45 1362.5,1085.5C 1363.58,1084.64 1363.75,1083.64 1363,1082.5C 1354.84,1078.06 1354.84,1073.4 1363,1068.5C 1366.79,1071.28 1370.29,1074.45 1373.5,1078C 1375.5,1078.83 1377.5,1079.67 1379.5,1080.5C 1373.57,1088.17 1371.9,1096.51 1374.5,1105.5C 1379.9,1101.6 1384.06,1096.6 1387,1090.5C 1388.67,1089.17 1390.33,1089.17 1392,1090.5C 1393.19,1095.94 1394.69,1101.27 1396.5,1106.5C 1400.16,1110.36 1404.5,1111.36 1409.5,1109.5C 1410.79,1106.79 1410.46,1104.29 1408.5,1102C 1409.21,1100.56 1410.38,1099.72 1412,1099.5C 1415.15,1101.32 1417.65,1103.82 1419.5,1107C 1422.77,1109.35 1425.44,1108.85 1427.5,1105.5C 1426.24,1101.98 1424.24,1098.98 1421.5,1096.5C 1424.77,1095.51 1428.1,1095.18 1431.5,1095.5C 1430.67,1102.46 1433.34,1104.63 1439.5,1102C 1441.54,1100.29 1443.21,1098.29 1444.5,1096C 1436.17,1088.19 1432.17,1078.69 1432.5,1067.5C 1437.49,1071.66 1442.82,1075.33 1448.5,1078.5C 1448.83,1078.17 1449.17,1077.83 1449.5,1077.5C 1448.17,1075.5 1446.83,1073.5 1445.5,1071.5C 1447.08,1068.06 1446.75,1064.9 1444.5,1062C 1439.68,1060.04 1434.68,1058.7 1429.5,1058C 1426.12,1056.97 1424.96,1054.8 1426,1051.5C 1427.71,1047.13 1430.21,1043.29 1433.5,1040C 1437.42,1039.21 1441.26,1039.37 1445,1040.5C 1446.2,1044.72 1446.87,1049.05 1447,1053.5C 1448.47,1059.24 1450.31,1059.57 1452.5,1054.5C 1453.33,1054.17 1454.17,1053.83 1455,1053.5C 1459.54,1054.6 1463.88,1056.27 1468,1058.5C 1471.89,1057.44 1474.72,1055.11 1476.5,1051.5C 1479.19,1053.07 1480.03,1055.41 1479,1058.5C 1474.27,1065.57 1469.93,1072.91 1466,1080.5C 1462.46,1088.02 1462.79,1095.35 1467,1102.5C 1467.48,1100.52 1468.65,1099.19 1470.5,1098.5C 1472.81,1099.8 1475.14,1101.13 1477.5,1102.5C 1480.19,1100.64 1482.36,1098.31 1484,1095.5C 1484.33,1099.5 1484.67,1103.5 1485,1107.5C 1485.39,1108.43 1486.05,1109.09 1487,1109.5C 1489.28,1108.22 1491.28,1106.56 1493,1104.5C 1497.75,1096.66 1502.25,1088.66 1506.5,1080.5C 1508.79,1085.29 1512.45,1088.45 1517.5,1090C 1529.28,1090.85 1540.78,1089.35 1552,1085.5C 1559.45,1087.9 1566.79,1090.56 1574,1093.5C 1578.94,1091.05 1581.77,1087.05 1582.5,1081.5C 1580.37,1076.61 1578.54,1071.61 1577,1066.5C 1574.65,1057.03 1578.15,1050.87 1587.5,1048C 1595.07,1045.69 1602.73,1043.86 1610.5,1042.5C 1609.82,1034.54 1611.66,1027.2 1616,1020.5C 1620.72,1015.26 1626.55,1013.43 1633.5,1015C 1635.84,1016.03 1638.18,1016.69 1640.5,1017C 1646.13,1012.37 1650.63,1006.87 1654,1000.5C 1654.5,998.19 1654.66,995.857 1654.5,993.5C 1658.82,994.249 1663.15,994.415 1667.5,994C 1668.86,992.055 1669.7,989.888 1670,987.5C 1676.31,989.807 1680.64,994.141 1683,1000.5C 1685.58,1011.42 1688.92,1022.08 1693,1032.5C 1697.75,1038.96 1703.92,1040.96 1711.5,1038.5C 1717.46,1043.71 1718.96,1050.04 1716,1057.5C 1713.58,1062 1710.92,1066.33 1708,1070.5C 1698.95,1079.04 1692.11,1089.04 1687.5,1100.5C 1689.44,1105.61 1692.94,1109.28 1698,1111.5C 1701.8,1107.07 1706.63,1105.07 1712.5,1105.5C 1711.74,1101.97 1710.41,1098.64 1708.5,1095.5C 1714.27,1089.61 1721.27,1087.11 1729.5,1088C 1732.69,1089.86 1735.19,1092.36 1737,1095.5C 1741.66,1092.56 1742.66,1088.56 1740,1083.5C 1738.89,1081.19 1737.06,1079.69 1734.5,1079C 1737.49,1078.13 1740.49,1077.8 1743.5,1078C 1746.06,1081.07 1749.06,1083.57 1752.5,1085.5C 1754.52,1083.75 1756.18,1081.75 1757.5,1079.5C 1760.39,1081.29 1763.39,1082.46 1766.5,1083C 1767.02,1082.44 1767.36,1081.77 1767.5,1081C 1766.2,1076.11 1764.7,1071.27 1763,1066.5C 1762.33,1064.17 1762.33,1061.83 1763,1059.5C 1767.02,1062.02 1770.19,1065.36 1772.5,1069.5C 1771.7,1072.13 1770.03,1073.97 1767.5,1075C 1768.17,1075.67 1768.83,1076.33 1769.5,1077C 1774.83,1078.33 1780.17,1079.67 1785.5,1081C 1786.23,1082.4 1786.73,1083.9 1787,1085.5C 1788.49,1084 1790.32,1083.16 1792.5,1083C 1797.9,1082.77 1803.23,1082.11 1808.5,1081C 1809.38,1079.64 1809.71,1078.14 1809.5,1076.5C 1803.2,1076.43 1798.04,1074.1 1794,1069.5C 1793.9,1061.44 1798.07,1057.44 1806.5,1057.5C 1812.01,1057.28 1816.51,1059.28 1820,1063.5C 1819.77,1056.16 1821.1,1049.16 1824,1042.5C 1826.5,1040.52 1829.33,1040.02 1832.5,1041C 1835.54,1043.7 1838.2,1046.7 1840.5,1050C 1836.73,1053.43 1834.23,1057.59 1833,1062.5C 1832.42,1067.96 1832.75,1073.29 1834,1078.5C 1825.11,1084.52 1824.28,1091.52 1831.5,1099.5C 1827.25,1101.58 1823.42,1104.25 1820,1107.5C 1818.81,1109.04 1818.48,1110.71 1819,1112.5C 1826.17,1117.13 1833.67,1117.63 1841.5,1114C 1849.64,1102.02 1855.81,1103.19 1860,1117.5C 1867.77,1113.2 1875.94,1109.86 1884.5,1107.5C 1893.03,1109.17 1899.53,1113.84 1904,1121.5C 1904.87,1116.23 1906.53,1111.23 1909,1106.5C 1914.14,1102.07 1916.81,1103.4 1917,1110.5C 1917.67,1109.17 1918.33,1107.83 1919,1106.5C 1922.73,1087.63 1925.73,1068.63 1928,1049.5C 1928.52,1044.93 1930.02,1040.76 1932.5,1037C 1933.83,1036.33 1935.17,1036.33 1936.5,1037C 1937.79,1039.09 1938.96,1041.25 1940,1043.5C 1939.96,1037.54 1942.79,1035.38 1948.5,1037C 1960.33,1044.75 1972.33,1052.25 1984.5,1059.5C 1987.12,1058.05 1988.79,1055.88 1989.5,1053C 1987.72,1049.56 1985.56,1046.39 1983,1043.5C 1982.23,1037.12 1985.06,1034.78 1991.5,1036.5C 1988.13,1025.21 1992.13,1020.54 2003.5,1022.5C 2006.48,1028 2011.14,1031 2017.5,1031.5C 2012.6,1035.97 2011.43,1041.31 2014,1047.5C 2015.42,1045.65 2016.59,1043.65 2017.5,1041.5C 2022.94,1046.07 2022.44,1050.07 2016,1053.5C 2014.49,1055.3 2014.33,1057.13 2015.5,1059C 2018.28,1058.63 2020.94,1057.63 2023.5,1056C 2025.83,1055.33 2028.17,1055.33 2030.5,1056C 2033.35,1058.23 2035.85,1060.73 2038,1063.5C 2043.49,1062.61 2048.99,1062.78 2054.5,1064C 2064.61,1066.26 2074.61,1068.93 2084.5,1072C 2086.9,1072.37 2089.23,1072.37 2091.5,1072C 2092.72,1073.65 2093.55,1075.48 2094,1077.5C 2095.23,1089.66 2098.23,1101.32 2103,1112.5C 2105.07,1115.07 2107.57,1117.07 2110.5,1118.5C 2118.02,1112.35 2126.02,1111.85 2134.5,1117C 2141.5,1121.22 2149,1124.05 2157,1125.5C 2163.37,1124.96 2167.54,1121.63 2169.5,1115.5C 2170,1114.48 2170.67,1114.31 2171.5,1115C 2169.29,1119.57 2169.29,1124.23 2171.5,1129C 2170.96,1132.5 2169.96,1135.83 2168.5,1139C 2170.95,1140.61 2173.61,1141.28 2176.5,1141C 2175.06,1139.29 2174.22,1137.46 2174,1135.5C 2176.45,1134.59 2178.95,1133.76 2181.5,1133C 2182.33,1131.18 2183.16,1129.35 2184,1127.5C 2184.8,1134.55 2184.63,1141.55 2183.5,1148.5C 2184.19,1150.44 2184.69,1152.44 2185,1154.5C 2185.75,1155.13 2186.58,1155.63 2187.5,1156C 2191.82,1156.5 2196.15,1156.67 2200.5,1156.5C 2200.09,1161.5 2201.75,1165.67 2205.5,1169C 2209.58,1171.8 2214.08,1173.64 2219,1174.5C 2225.2,1173.63 2228.7,1170.13 2229.5,1164C 2228.77,1159.48 2227.44,1155.15 2225.5,1151C 2226.99,1149.12 2228.99,1148.12 2231.5,1148C 2244.47,1149.06 2257.47,1149.73 2270.5,1150C 2277.45,1147.37 2283.62,1143.54 2289,1138.5C 2291.39,1139.28 2293.56,1140.44 2295.5,1142C 2298.39,1146.13 2301.72,1149.79 2305.5,1153C 2309.33,1153.76 2313,1153.26 2316.5,1151.5C 2320.52,1160.21 2324.52,1168.88 2328.5,1177.5C 2328.43,1178.77 2328.1,1179.94 2327.5,1181C 2325.15,1181.44 2322.82,1181.94 2320.5,1182.5C 2316.46,1181.66 2312.46,1181.16 2308.5,1181C 2310.85,1186.24 2312.35,1191.74 2313,1197.5C 2313.68,1208.19 2313.51,1218.85 2312.5,1229.5C 2322.1,1230.27 2327.27,1235.6 2328,1245.5C 2328.67,1251.5 2328.67,1257.5 2328,1263.5C 2325.28,1273.21 2323.11,1283.05 2321.5,1293C 2321.9,1296.17 2322.23,1299.33 2322.5,1302.5C 2318.03,1301.94 2313.69,1301.11 2309.5,1300C 2307.15,1302.37 2306.98,1304.87 2309,1307.5C 2316.23,1315.8 2325.4,1319.64 2336.5,1319C 2333.41,1322.67 2332.24,1326.84 2333,1331.5C 2338,1335.5 2343,1339.5 2348,1343.5C 2349.48,1346.7 2349.82,1350.04 2349,1353.5C 2346.83,1355.67 2344.67,1357.83 2342.5,1360C 2334.05,1363.81 2325.71,1367.81 2317.5,1372C 2313.66,1375.86 2312.66,1380.36 2314.5,1385.5C 2313.04,1389.41 2310.37,1392.25 2306.5,1394C 2300.49,1395.83 2294.49,1397.67 2288.5,1399.5C 2287.71,1400.24 2287.05,1401.08 2286.5,1402C 2287.38,1403.59 2288.38,1405.09 2289.5,1406.5C 2274.19,1406.89 2258.85,1408.05 2243.5,1410C 2234.17,1410.67 2224.83,1410.67 2215.5,1410C 2209.86,1409.27 2205.7,1406.44 2203,1401.5C 2195.96,1411.51 2186.46,1415.01 2174.5,1412C 2167.44,1410.2 2160.44,1408.2 2153.5,1406C 2149.11,1405.23 2144.78,1405.39 2140.5,1406.5C 2138.7,1405.73 2136.87,1405.07 2135,1404.5C 2123.49,1409.67 2112.32,1415.51 2101.5,1422C 2091.06,1425.25 2084.9,1421.42 2083,1410.5C 2078.28,1403.23 2071.78,1398.57 2063.5,1396.5C 2057.75,1396.61 2054.58,1399.61 2054,1405.5C 2053.33,1408.83 2053.33,1412.17 2054,1415.5C 2064.09,1424.69 2071.42,1435.69 2076,1448.5C 2077.61,1456.21 2076.11,1463.21 2071.5,1469.5C 2068.48,1469.93 2065.98,1471.26 2064,1473.5C 2062.93,1478.81 2061.93,1484.14 2061,1489.5C 2060.07,1492.1 2058.23,1493.6 2055.5,1494C 2059.54,1501.25 2063.71,1508.42 2068,1515.5C 2069.02,1516.69 2070.19,1517.69 2071.5,1518.5C 2078.96,1506.03 2089.79,1498.7 2104,1496.5C 2107.59,1496.94 2111.09,1497.77 2114.5,1499C 2117.06,1501.41 2120.06,1503.08 2123.5,1504C 2129.79,1505.02 2136.13,1505.69 2142.5,1506C 2146.24,1507.74 2149.41,1510.24 2152,1513.5C 2155.8,1519.44 2158.8,1525.77 2161,1532.5C 2167.31,1528.59 2170.98,1530.26 2172,1537.5C 2173.08,1539.58 2174.74,1540.91 2177,1541.5C 2180.18,1539.15 2183.68,1537.48 2187.5,1536.5C 2188.5,1536.67 2189.5,1536.83 2190.5,1537C 2192.85,1539.42 2195.18,1541.75 2197.5,1544C 2209.18,1544 2215.51,1550 2216.5,1562C 2214.75,1571.26 2212.58,1580.43 2210,1589.5C 2209.33,1593.17 2209.33,1596.83 2210,1600.5C 2211.03,1603.51 2211.69,1606.51 2212,1609.5C 2206.28,1615.89 2199.44,1620.72 2191.5,1624C 2181.69,1627.79 2171.69,1630.95 2161.5,1633.5C 2159.55,1637.64 2159.05,1641.97 2160,1646.5C 2161.57,1653.56 2163.74,1660.39 2166.5,1667C 2163.5,1671.33 2159.83,1675 2155.5,1678C 2147.89,1682.61 2140.56,1687.61 2133.5,1693C 2129.36,1696.63 2126.7,1701.13 2125.5,1706.5C 2129.28,1711.34 2130.95,1716.84 2130.5,1723C 2129.89,1730.38 2128.89,1737.71 2127.5,1745C 2128.32,1749.42 2129.48,1753.59 2131,1757.5C 2129.92,1759.58 2128.26,1760.91 2126,1761.5C 2123.88,1759.97 2122.22,1757.97 2121,1755.5C 2118.66,1762.01 2114.16,1766.34 2107.5,1768.5C 2108.53,1778.53 2105.53,1787.03 2098.5,1794C 2091.01,1797.92 2083.01,1799.92 2074.5,1800C 2071.3,1806.2 2066.97,1811.54 2061.5,1816C 2058.93,1818.29 2055.93,1819.45 2052.5,1819.5C 2052.47,1824.37 2050.13,1826.54 2045.5,1826C 2040.21,1811.17 2031.21,1808.17 2018.5,1817C 2012.83,1821.33 2007.83,1826.33 2003.5,1832C 2002.5,1832.67 2001.5,1832.67 2000.5,1832C 1988.89,1821.87 1982.06,1824.37 1980,1839.5C 1979.94,1856.89 1979.28,1874.22 1978,1891.5C 1977.69,1892.77 1977.19,1893.93 1976.5,1895C 1970.9,1895.55 1966.4,1898.05 1963,1902.5C 1961.76,1911.09 1961.09,1919.76 1961,1928.5C 1959.92,1931.91 1957.76,1934.41 1954.5,1936C 1960.02,1938.92 1961.86,1943.42 1960,1949.5C 1957.54,1952.99 1954.37,1953.99 1950.5,1952.5C 1948.83,1946.79 1945.49,1942.45 1940.5,1939.5C 1935.28,1943.93 1932.11,1949.6 1931,1956.5C 1925.13,1983.6 1923.46,2010.93 1926,2038.5C 1925.21,2040.59 1924.04,2042.42 1922.5,2044C 1916.33,2045.5 1910.33,2047.5 1904.5,2050C 1903.14,2051.94 1902.3,2054.11 1902,2056.5C 1904.04,2081.31 1906.2,2106.15 1908.5,2131C 1908.89,2142.07 1906.72,2152.57 1902,2162.5C 1897.54,2169.24 1891.2,2172.9 1883,2173.5C 1877.94,2170.78 1873.1,2167.62 1868.5,2164C 1862.66,2160.29 1856.32,2158.62 1849.5,2159C 1843.79,2160.41 1838.12,2161.91 1832.5,2163.5C 1830.64,2137.28 1818.64,2117.12 1796.5,2103C 1785.14,2096.59 1773.47,2095.93 1761.5,2101C 1754.86,2107.31 1748.52,2113.98 1742.5,2121C 1725.99,2132.42 1707.99,2135.42 1688.5,2130C 1678.47,2127.4 1668.97,2123.57 1660,2118.5C 1652.68,2125.48 1644.51,2131.32 1635.5,2136C 1629.18,2138.33 1623.18,2137.67 1617.5,2134C 1610.91,2127.41 1605.08,2120.25 1600,2112.5C 1594.73,2106.2 1588.07,2102.2 1580,2100.5C 1577.84,2101.99 1575.68,2103.49 1573.5,2105C 1568.83,2105.67 1564.17,2105.67 1559.5,2105C 1551,2102.17 1542.5,2099.33 1534,2096.5C 1533.17,2096.67 1532.33,2096.83 1531.5,2097C 1536.13,2113.05 1530.13,2119.71 1513.5,2117C 1510.04,2126.13 1503.71,2132.13 1494.5,2135C 1486.5,2135.33 1478.5,2135.67 1470.5,2136C 1465.99,2136.5 1462.15,2138.33 1459,2141.5C 1460.8,2148.92 1462.63,2156.42 1464.5,2164C 1464.7,2167.27 1463.37,2169.61 1460.5,2171C 1451.19,2172.48 1441.86,2173.81 1432.5,2175C 1428.86,2176.62 1425.19,2178.29 1421.5,2180C 1406.72,2183.45 1392.05,2183.28 1377.5,2179.5C 1372.86,2171.57 1366.19,2169.4 1357.5,2173C 1352.28,2175.45 1346.94,2177.61 1341.5,2179.5C 1340.35,2179.18 1339.52,2178.52 1339,2177.5C 1338.18,2170.73 1336.85,2164.06 1335,2157.5C 1333.16,2151.44 1329.33,2149.1 1323.5,2150.5C 1321.7,2155.47 1318.36,2158.97 1313.5,2161C 1304.99,2163.64 1296.32,2165.64 1287.5,2167C 1277.16,2171.41 1272.83,2179.07 1274.5,2190C 1258.38,2202.12 1241.71,2213.45 1224.5,2224C 1212.17,2230.54 1199.67,2231.04 1187,2225.5C 1180.99,2232.66 1173.49,2237.66 1164.5,2240.5C 1163.07,2237.95 1161.4,2235.62 1159.5,2233.5C 1155.61,2237.44 1151.77,2237.44 1148,2233.5C 1139.6,2238.54 1130.6,2241.87 1121,2243.5C 1116.81,2243.13 1112.81,2242.13 1109,2240.5C 1101.05,2227.43 1094.88,2213.6 1090.5,2199C 1090.09,2196.42 1091.09,2194.76 1093.5,2194C 1106.26,2193.37 1118.92,2192.03 1131.5,2190C 1127.94,2188.11 1125.44,2185.27 1124,2181.5C 1121.29,2172.26 1118.95,2162.93 1117,2153.5C 1106.96,2135.23 1091.46,2127.73 1070.5,2131C 1062.56,2131.89 1055.73,2135.05 1050,2140.5C 1049.32,2143.3 1048.16,2145.8 1046.5,2148C 1025.41,2149.94 1005.41,2155.6 986.5,2165C 975.059,2172.94 965.059,2182.44 956.5,2193.5C 939.274,2190.24 930.774,2197.24 931,2214.5C 929.086,2215.41 927.919,2216.91 927.5,2219C 929.284,2222.74 931.451,2226.24 934,2229.5C 934.667,2231.17 934.667,2232.83 934,2234.5C 918.968,2244.22 909.634,2257.89 906,2275.5C 905.007,2289.57 903.507,2303.57 901.5,2317.5C 887.109,2315.02 875.276,2319.35 866,2330.5C 860.583,2339.49 854.083,2347.65 846.5,2355C 838.236,2360.17 829.236,2361.84 819.5,2360C 817.441,2357.47 814.774,2356.3 811.5,2356.5C 804.827,2358.01 798.161,2359.17 791.5,2360C 786.658,2354.5 782.658,2348.5 779.5,2342C 781.184,2338.3 783.684,2335.13 787,2332.5C 786.084,2303.56 771.251,2286.06 742.5,2280C 728.131,2278.11 713.798,2278.45 699.5,2281C 686.42,2283.28 673.42,2285.95 660.5,2289C 636.456,2290 612.456,2291.67 588.5,2294C 570.387,2295.73 552.72,2293.73 535.5,2288C 519.391,2280.89 507.558,2269.39 500,2253.5C 489.795,2247.15 478.629,2243.65 466.5,2243C 444.471,2242.91 422.471,2242.24 400.5,2241C 388.15,2239.14 378.15,2233.31 370.5,2223.5C 362.994,2222.82 358.494,2218.82 357,2211.5C 356.718,2207.96 356.218,2204.46 355.5,2201C 356.831,2189.86 357.665,2178.69 358,2167.5C 349.191,2159.02 340.691,2150.19 332.5,2141C 329.332,2138.37 325.998,2138.03 322.5,2140C 318.396,2145.56 314.062,2150.89 309.5,2156C 299.674,2164 288.507,2169.16 276,2171.5C 266.711,2169.71 261.878,2164.04 261.5,2154.5C 252.306,2154.84 249.139,2150.84 252,2142.5C 256.688,2137.31 261.188,2131.98 265.5,2126.5C 258.982,2125.48 254.815,2121.81 253,2115.5C 251.805,2107.65 249.972,2099.99 247.5,2092.5C 241.486,2091.42 237.32,2088.08 235,2082.5C 231.711,2072.41 230.711,2062.08 232,2051.5C 233.695,2046.4 237.195,2044.57 242.5,2046C 244.5,2049 246.5,2052 248.5,2055C 255.131,2057.77 260.631,2056.27 265,2050.5C 268.308,2044.05 272.474,2038.22 277.5,2033C 279.167,2032.67 280.833,2032.33 282.5,2032C 277.023,2028.76 271.356,2025.76 265.5,2023C 263.04,2021.54 260.873,2019.71 259,2017.5C 258.275,2021.64 256.109,2024.64 252.5,2026.5C 249.867,2025.7 248.033,2024.03 247,2021.5C 246.517,2024.82 245.017,2027.49 242.5,2029.5C 239.623,2026.24 237.289,2022.57 235.5,2018.5C 233.629,2019.77 231.796,2019.77 230,2018.5C 229.785,2014.72 229.619,2011.05 229.5,2007.5C 227.016,2009.82 224.183,2011.49 221,2012.5C 217.933,2011.6 216.933,2009.6 218,2006.5C 220.989,2002.51 224.822,1999.68 229.5,1998C 244.171,1997.81 255.337,1991.64 263,1979.5C 265.986,1974.04 268.486,1968.37 270.5,1962.5C 277.592,1961.83 284.592,1960.66 291.5,1959C 295.827,1957.43 298.993,1954.59 301,1950.5C 302.152,1944.23 302.818,1937.9 303,1931.5C 310.459,1916.33 313.793,1900.33 313,1883.5C 312.204,1881.03 310.537,1879.7 308,1879.5C 303.675,1880.58 299.842,1882.58 296.5,1885.5C 291.22,1881.72 286.386,1877.39 282,1872.5C 279.577,1867.84 280.744,1864.34 285.5,1862C 276.458,1853.33 273.958,1843.17 278,1831.5C 280.5,1829 283,1826.5 285.5,1824C 291.191,1824.33 296.857,1825.17 302.5,1826.5C 309.339,1825.83 315.672,1823.66 321.5,1820C 330.688,1812.23 339.688,1804.23 348.5,1796C 353.683,1792.61 359.35,1790.61 365.5,1790C 369.276,1788.39 371.276,1785.56 371.5,1781.5C 367.302,1781.36 363.302,1781.86 359.5,1783C 364.909,1778.18 364.576,1773.68 358.5,1769.5C 344.392,1773.44 331.058,1771.6 318.5,1764C 316.112,1761.95 314.112,1759.62 312.5,1757C 315.367,1753.44 317.867,1749.61 320,1745.5C 322.051,1736.62 324.718,1727.96 328,1719.5C 329.5,1718 331,1716.5 332.5,1715C 345.195,1709.62 356.861,1702.62 367.5,1694C 380.634,1682.53 393.467,1670.7 406,1658.5C 402.865,1645.62 399.865,1632.62 397,1619.5C 393.349,1598.74 393.682,1578.07 398,1557.5C 400.263,1551.14 403.429,1545.31 407.5,1540C 403.286,1535.45 399.453,1530.62 396,1525.5C 390.086,1514.09 384.752,1502.42 380,1490.5C 372.566,1471.87 359.399,1465.87 340.5,1472.5C 344.291,1458.96 348.791,1445.63 354,1432.5C 355.895,1427.68 356.728,1422.68 356.5,1417.5C 354.738,1417.36 353.071,1417.69 351.5,1418.5C 350.702,1416.92 350.202,1415.26 350,1413.5C 349.25,1412.87 348.416,1412.37 347.5,1412C 340.885,1410.89 334.218,1410.23 327.5,1410C 325.246,1409.38 323.579,1408.04 322.5,1406C 330.54,1398.67 333.04,1389.83 330,1379.5C 339.133,1373.76 342.133,1365.76 339,1355.5C 337.103,1353.98 334.936,1353.32 332.5,1353.5C 332.133,1343.66 333.133,1333.99 335.5,1324.5C 338.228,1323.06 340.395,1323.73 342,1326.5C 346.918,1334 351.584,1341.67 356,1349.5C 358.346,1353.18 361.346,1356.18 365,1358.5C 375.294,1354.87 382.294,1347.87 386,1337.5C 388.295,1331 388.961,1324.34 388,1317.5C 387.586,1317.04 387.086,1316.71 386.5,1316.5C 382.865,1318.19 379.032,1319.19 375,1319.5C 368.636,1318.69 362.303,1317.69 356,1316.5C 352.7,1316.4 350.2,1317.73 348.5,1320.5C 343.897,1304.15 341.23,1287.48 340.5,1270.5C 343.425,1270.46 346.091,1271.29 348.5,1273C 361.41,1285.29 376.743,1292.45 394.5,1294.5C 394.472,1292.42 395.139,1290.58 396.5,1289C 401.246,1286.58 406.246,1284.92 411.5,1284C 409.65,1279.34 409.15,1274.51 410,1269.5C 412.389,1262.39 415.056,1255.39 418,1248.5C 418.804,1244.8 418.304,1241.3 416.5,1238C 427.891,1234.85 439.558,1233.51 451.5,1234C 461.633,1236.45 465.633,1242.95 463.5,1253.5C 463.527,1261.31 462.527,1268.98 460.5,1276.5C 458.247,1270.32 454.747,1264.99 450,1260.5C 450.87,1264.05 452.703,1267.22 455.5,1270C 452.4,1273.34 450.9,1277.18 451,1281.5C 453.064,1282.59 455.231,1282.76 457.5,1282C 467.43,1279.19 477.43,1276.69 487.5,1274.5C 487.32,1288.68 479.987,1296.01 465.5,1296.5C 458.045,1295.63 450.712,1294.46 443.5,1293C 444.685,1294.35 446.019,1295.52 447.5,1296.5C 439.357,1302.07 435.024,1309.57 434.5,1319C 451.38,1327.88 469.38,1332.38 488.5,1332.5C 521.167,1332.35 550.5,1322.68 576.5,1303.5C 587.921,1304.95 594.755,1311.28 597,1322.5C 597.82,1331.19 598.82,1339.86 600,1348.5C 600.333,1348.83 600.667,1349.17 601,1349.5C 604.112,1346.28 607.612,1345.78 611.5,1348C 616.58,1354.16 620.914,1360.82 624.5,1368C 621.637,1369.36 619.637,1371.53 618.5,1374.5C 626.738,1388.14 623.238,1396.81 608,1400.5C 606.033,1400.46 604.199,1399.96 602.5,1399C 599.64,1396.64 596.64,1394.47 593.5,1392.5C 587.109,1396.59 582.609,1402.26 580,1409.5C 580.459,1417.88 583.126,1425.54 588,1432.5C 592.349,1436.95 597.515,1438.78 603.5,1438C 606.929,1443.13 607.429,1448.63 605,1454.5C 601,1461.83 597,1469.17 593,1476.5C 590.478,1482.78 592.645,1486.45 599.5,1487.5C 600.253,1489.75 601.586,1491.59 603.5,1493C 607.114,1493.94 610.781,1494.61 614.5,1495C 618.177,1501.32 616.51,1505.32 609.5,1507C 607.667,1508.17 606.167,1509.67 605,1511.5C 602.333,1518.17 599.667,1524.83 597,1531.5C 593.999,1536 589.833,1538.67 584.5,1539.5C 583.604,1534.54 581.271,1530.38 577.5,1527C 576.167,1526.33 574.833,1526.33 573.5,1527C 564.956,1533.5 555.956,1534.17 546.5,1529C 543.333,1526.5 540.167,1524 537,1521.5C 531.179,1528.31 527.679,1536.14 526.5,1545C 526.267,1548.46 527.101,1551.63 529,1554.5C 536.815,1561.4 544.815,1568.07 553,1574.5C 554.447,1578.77 555.947,1582.94 557.5,1587C 558.833,1587.67 560.167,1588.33 561.5,1589C 567.793,1590.02 574.126,1590.69 580.5,1591C 583.583,1591.79 585.749,1593.62 587,1596.5C 586.4,1589.29 588.734,1583.29 594,1578.5C 593.748,1571.14 591.581,1564.3 587.5,1558C 592.933,1560.03 598.599,1561.7 604.5,1563C 616.852,1563.33 628.186,1560 638.5,1553C 643.833,1549.33 649.167,1545.67 654.5,1542C 645.492,1524.7 649.159,1510.7 665.5,1500C 672.742,1495.71 680.409,1492.54 688.5,1490.5C 684.942,1478.74 683.775,1466.74 685,1454.5C 685.892,1451.72 687.058,1449.05 688.5,1446.5C 685.144,1437.52 686.477,1429.36 692.5,1422C 695.347,1421.06 697.847,1421.56 700,1423.5C 697.916,1433.67 700.416,1442.5 707.5,1450C 715.065,1454.39 720.898,1452.89 725,1445.5C 726.214,1443.95 727.714,1442.78 729.5,1442C 733.167,1441.33 736.833,1441.33 740.5,1442C 746.145,1444.24 751.979,1445.74 758,1446.5C 762.332,1446.58 765.832,1444.92 768.5,1441.5C 771.991,1445.16 775.324,1448.99 778.5,1453C 781.005,1454.75 783.671,1456.25 786.5,1457.5C 789.337,1456.67 791.504,1455 793,1452.5C 796.333,1444.5 799.667,1436.5 803,1428.5C 807.901,1424.92 813.234,1422.26 819,1420.5C 820.226,1420.64 821.393,1420.98 822.5,1421.5C 823.239,1429.15 823.406,1436.82 823,1444.5C 823.653,1447.81 825.319,1450.47 828,1452.5C 839.418,1450.2 848.085,1454.2 854,1464.5C 861.413,1459.77 869.58,1457.44 878.5,1457.5C 881.682,1450.33 882.182,1443 880,1435.5C 872.333,1424.5 864.667,1413.5 857,1402.5C 857.245,1398.19 857.245,1393.85 857,1389.5C 854.651,1376.1 851.984,1362.77 849,1349.5C 847.444,1337.4 851.277,1335.4 860.5,1343.5C 861.874,1342.29 863.374,1341.29 865,1340.5C 865.873,1340.74 866.707,1341.07 867.5,1341.5C 870.919,1346.67 874.085,1352 877,1357.5C 879.317,1360.1 882.15,1360.93 885.5,1360C 900.311,1347.91 905.811,1332.41 902,1313.5C 896.566,1296.57 886.4,1283.23 871.5,1273.5C 858.689,1282.35 846.855,1281.01 836,1269.5C 832.174,1263.29 833.008,1257.79 838.5,1253C 846.613,1252.99 853.78,1250.49 860,1245.5C 860.652,1242.41 860.318,1239.41 859,1236.5C 855.25,1230 851.25,1223.66 847,1217.5C 838.534,1202.59 842.367,1192.09 858.5,1186C 872.164,1181.61 886.164,1178.94 900.5,1178C 904.221,1171.28 909.554,1166.28 916.5,1163C 928.206,1161.54 939.873,1162.04 951.5,1164.5C 958.717,1164.04 965.05,1161.54 970.5,1157C 969.751,1155.27 969.251,1153.43 969,1151.5C 968.667,1143.17 968.333,1134.83 968,1126.5C 965.425,1120.27 960.925,1115.94 954.5,1113.5C 953.537,1108.84 954.204,1104.34 956.5,1100C 955.144,1096.57 952.81,1095.74 949.5,1097.5C 949.167,1096.83 948.833,1096.17 948.5,1095.5C 950.712,1088.2 950.879,1080.86 949,1073.5C 947.574,1066.82 943.741,1064.65 937.5,1067C 923.892,1075.71 917.225,1088.21 917.5,1104.5C 892.524,1098.83 870.857,1104.83 852.5,1122.5C 846.56,1117.7 839.893,1114.2 832.5,1112C 818.237,1110.04 803.904,1108.7 789.5,1108C 775.339,1106.48 764.173,1099.98 756,1088.5C 752.415,1083 749.081,1077.33 746,1071.5C 739.992,1055.14 734.992,1038.48 731,1021.5C 729.31,1015.13 726.81,1009.13 723.5,1003.5C 730.929,1001.74 734.596,997.076 734.5,989.5C 734.346,985.73 733.679,982.064 732.5,978.5C 737.996,967.008 745.329,956.842 754.5,948C 762.215,942.298 770.881,939.965 780.5,941C 784.107,937.528 786.607,933.361 788,928.5C 790.781,926.46 793.781,924.793 797,923.5C 799.451,909.141 804.451,895.807 812,883.5C 817.789,875.717 825.289,870.217 834.5,867C 842.098,857.399 850.431,848.399 859.5,840C 867.351,833.603 876.351,829.936 886.5,829C 896.752,814.08 909.085,801.08 923.5,790C 938.676,779.579 953.676,768.912 968.5,758C 976.766,751.738 984.432,744.738 991.5,737C 1001.88,734.896 1010.71,730.062 1018,722.5C 1026.72,712.12 1035.05,701.453 1043,690.5C 1050.07,681.723 1058.9,675.557 1069.5,672C 1076.58,671.412 1083.58,671.412 1090.5,672C 1091.1,662.519 1091.93,653.019 1093,643.5C 1094.17,641 1096,639.167 1098.5,638C 1101.55,637.821 1104.55,637.321 1107.5,636.5C 1104.69,632.418 1105.35,628.918 1109.5,626C 1111.92,624.937 1114.42,624.104 1117,623.5C 1119.98,625.247 1123.15,625.747 1126.5,625C 1131.38,620.613 1136.04,615.946 1140.5,611C 1143.93,608.928 1147.6,608.262 1151.5,609C 1159.45,617.313 1168.78,623.646 1179.5,628C 1188.86,631.566 1198.36,634.732 1208,637.5C 1222.09,631.968 1236.59,627.968 1251.5,625.5C 1265.5,626.993 1276.33,633.659 1284,645.5C 1290.97,641.216 1297.63,641.549 1304,646.5C 1305.04,648.715 1305.71,651.048 1306,653.5C 1312.06,648.693 1316.73,649.693 1320,656.5C 1320.76,659.626 1321.26,662.793 1321.5,666C 1320.9,670.973 1320.07,675.806 1319,680.5C 1326.33,686.5 1333,693.167 1339,700.5C 1339.15,703.421 1338.65,706.254 1337.5,709C 1338.13,710.892 1339.13,712.559 1340.5,714C 1345.39,715.224 1350.39,715.891 1355.5,716C 1356.31,716.308 1356.97,716.808 1357.5,717.5C 1353.06,723.439 1349.72,729.939 1347.5,737C 1347.64,739.151 1348.64,740.818 1350.5,742C 1353.15,742.452 1355.65,743.286 1358,744.5C 1358.17,747.439 1359,750.272 1360.5,753C 1358.79,755.802 1356.62,758.302 1354,760.5C 1353.03,763.444 1352.2,766.444 1351.5,769.5C 1348.69,766.024 1346.19,766.024 1344,769.5C 1342.74,774.229 1343.91,778.229 1347.5,781.5C 1345.23,782.314 1342.9,782.814 1340.5,783C 1338.23,786.075 1337.06,789.575 1337,793.5C 1335,794.167 1333,794.833 1331,795.5C 1330.33,796.5 1330.33,797.5 1331,798.5C 1333.57,800.976 1335.07,803.976 1335.5,807.5C 1331,807.75 1327.33,809.583 1324.5,813C 1328.86,818.354 1333.52,823.354 1338.5,828C 1331.16,834.505 1326.83,842.671 1325.5,852.5C 1324.8,858.48 1324.3,864.48 1324,870.5C 1311.01,883.462 1307.01,898.795 1312,916.5C 1308.71,913.943 1305.21,912.11 1301.5,911C 1299.72,920.775 1294.72,928.442 1286.5,934C 1296.28,942.063 1302.61,952.23 1305.5,964.5C 1305.1,966.197 1304.6,967.863 1304,969.5C 1291.18,975.776 1278.01,981.276 1264.5,986C 1260.01,988.079 1255.67,990.412 1251.5,993C 1239.78,990.578 1228.44,991.911 1217.5,997C 1214.33,998.833 1211.83,1001.33 1210,1004.5C 1210.68,1008.91 1211.18,1013.41 1211.5,1018C 1211.66,1028.5 1206.5,1033.67 1196,1033.5C 1195.44,1042.45 1192.27,1050.28 1186.5,1057C 1188.71,1058.87 1190.54,1061.04 1192,1063.5C 1195.46,1074.59 1200.63,1084.75 1207.5,1094C 1210.33,1096.25 1213.33,1098.25 1216.5,1100C 1214.81,1101.91 1214.31,1104.08 1215,1106.5C 1219.8,1109.06 1224.63,1111.39 1229.5,1113.5C 1227.4,1114.59 1226.07,1116.26 1225.5,1118.5C 1226.42,1120.97 1227.25,1123.3 1228,1125.5C 1216.06,1125.31 1208.39,1130.98 1205,1142.5C 1204.18,1145.78 1203.68,1149.12 1203.5,1152.5C 1204.23,1157.53 1204.73,1162.53 1205,1167.5C 1195.97,1176.2 1187.3,1185.2 1179,1194.5C 1173.16,1205.43 1173.16,1216.43 1179,1227.5C 1181.94,1235.74 1186.61,1242.74 1193,1248.5C 1199.15,1256.6 1201.65,1265.77 1200.5,1276C 1200.42,1284.9 1199.75,1293.74 1198.5,1302.5C 1199.19,1306.19 1200.03,1309.86 1201,1313.5C 1201.91,1316.58 1203.74,1318.91 1206.5,1320.5C 1207.2,1323.56 1208.03,1326.56 1209,1329.5C 1216.74,1335.62 1224.9,1341.12 1233.5,1346C 1225.89,1357.86 1227.89,1367.86 1239.5,1376C 1240.17,1376.67 1240.83,1376.67 1241.5,1376C 1248.76,1366.73 1256.76,1358.07 1265.5,1350C 1272.95,1344.42 1280.62,1344.09 1288.5,1349C 1298.08,1357.41 1306.41,1366.91 1313.5,1377.5C 1315.33,1377.83 1317.17,1378.17 1319,1378.5C 1325.11,1377.1 1331.27,1376.6 1337.5,1377C 1341.65,1381.47 1344.65,1386.64 1346.5,1392.5C 1360.88,1378.27 1372.38,1361.94 1381,1343.5C 1384.63,1335.75 1385.63,1327.75 1384,1319.5C 1383.12,1316.9 1381.62,1314.73 1379.5,1313C 1375.1,1310.48 1370.43,1308.64 1365.5,1307.5C 1369.3,1304.19 1372.14,1300.19 1374,1295.5C 1374.67,1293.83 1374.67,1292.17 1374,1290.5C 1372.77,1286.94 1371.11,1283.61 1369,1280.5C 1363.51,1273.51 1358.51,1266.18 1354,1258.5C 1347.73,1264.39 1340.56,1268.89 1332.5,1272C 1327.58,1272.95 1324.08,1271.12 1322,1266.5C 1321.05,1261.38 1320.55,1256.21 1320.5,1251C 1321.47,1236.84 1321.64,1222.67 1321,1208.5C 1320.74,1204.23 1319.58,1200.23 1317.5,1196.5C 1302.57,1194.07 1291.73,1186.07 1285,1172.5C 1282.39,1166.95 1280.06,1161.28 1278,1155.5C 1273.82,1139.79 1269.49,1124.12 1265,1108.5C 1261.83,1099.33 1257,1091.16 1250.5,1084C 1241.4,1077.47 1231.57,1075.97 1221,1079.5C 1220.29,1077.63 1220.79,1076.13 1222.5,1075C 1228.63,1072.59 1234.96,1070.92 1241.5,1070C 1245.18,1068.68 1246.68,1066.18 1246,1062.5C 1244.8,1059.44 1243.63,1056.44 1242.5,1053.5C 1246.12,1054.24 1249.79,1054.58 1253.5,1054.5C 1252.89,1050.43 1251.55,1046.6 1249.5,1043C 1260.07,1041.08 1267.73,1035.42 1272.5,1026C 1275.5,1025.33 1278.5,1025.33 1281.5,1026C 1282.52,1026.52 1283.18,1027.35 1283.5,1028.5C 1282,1032.51 1279.5,1035.85 1276,1038.5C 1274.76,1039.88 1274.59,1041.21 1275.5,1042.5C 1281.97,1045.4 1288.64,1047.73 1295.5,1049.5C 1296.44,1049.39 1297.28,1049.06 1298,1048.5C 1297.61,1043.87 1297.61,1039.2 1298,1034.5C 1299.5,1031.67 1301.67,1029.5 1304.5,1028C 1291.87,1026.56 1286.87,1019.73 1289.5,1007.5C 1290.92,1009.72 1292.92,1011.22 1295.5,1012C 1302.42,1013.74 1309.42,1015.07 1316.5,1016C 1317.76,1016.42 1318.42,1017.25 1318.5,1018.5 Z M 1318.5,1018.5 C 1318.42,1023.17 1316.42,1024.34 1312.5,1022C 1314.69,1021.07 1316.69,1019.91 1318.5,1018.5 Z M 434.5,1279.5 C 435.794,1280.29 436.961,1281.29 438,1282.5C 439.692,1280.76 441.525,1280.42 443.5,1281.5C 442.608,1284.28 441.442,1286.95 440,1289.5C 437.381,1286.59 435.547,1283.26 434.5,1279.5 Z"/></g>
<g><path style="opacity:0.95" fill="#29333a" d="M 5904.5,1926.5 C 5904.83,1926.5 5905.17,1926.5 5905.5,1926.5C 5906.79,1926.74 5907.79,1926.4 5908.5,1925.5C 5909.79,1925.74 5910.79,1925.4 5911.5,1924.5C 5913.1,1924.77 5914.43,1924.43 5915.5,1923.5C 5916.79,1923.74 5917.79,1923.4 5918.5,1922.5C 5920.1,1922.77 5921.43,1922.43 5922.5,1921.5C 5923.79,1921.74 5924.79,1921.4 5925.5,1920.5C 5927.1,1920.77 5928.43,1920.43 5929.5,1919.5C 5930.79,1919.74 5931.79,1919.4 5932.5,1918.5C 5934.1,1918.77 5935.43,1918.43 5936.5,1917.5C 5937.79,1917.74 5938.79,1917.4 5939.5,1916.5C 5941.1,1916.77 5942.43,1916.43 5943.5,1915.5C 5944.24,1915.37 5944.91,1915.54 5945.5,1916C 5940.5,1933.67 5935.5,1951.33 5930.5,1969C 5945.85,1965.17 5961.18,1961 5976.5,1956.5C 5990.23,1952.65 6003.9,1948.65 6017.5,1944.5C 6032.68,1939.91 6047.85,1935.25 6063,1930.5C 6068.19,1912.39 6073.36,1894.39 6078.5,1876.5C 6078.83,1876.5 6079.17,1876.5 6079.5,1876.5C 6080.49,1876.67 6081.16,1876.34 6081.5,1875.5C 6082.17,1875.5 6082.83,1875.5 6083.5,1875.5C 6084.17,1875.5 6084.5,1875.17 6084.5,1874.5C 6085.17,1874.5 6085.83,1874.5 6086.5,1874.5C 6087.49,1874.67 6088.16,1874.34 6088.5,1873.5C 6089.17,1873.5 6089.83,1873.5 6090.5,1873.5C 6091.17,1873.5 6091.5,1873.17 6091.5,1872.5C 6092.17,1872.5 6092.83,1872.5 6093.5,1872.5C 6094.17,1872.5 6094.5,1872.17 6094.5,1871.5C 6095.5,1871.5 6096.5,1871.5 6097.5,1871.5C 6098.17,1871.5 6098.5,1871.17 6098.5,1870.5C 6099.17,1870.5 6099.83,1870.5 6100.5,1870.5C 6101.17,1870.5 6101.5,1870.17 6101.5,1869.5C 6102.5,1869.5 6103.5,1869.5 6104.5,1869.5C 6105.17,1869.5 6105.5,1869.17 6105.5,1868.5C 6109.79,1867.34 6114.13,1866.34 6118.5,1865.5C 6119.1,1865.74 6119.43,1866.24 6119.5,1867C 6114.59,1884.16 6110.09,1901.33 6106,1918.5C 6120.81,1914.01 6135.64,1909.51 6150.5,1905C 6157.05,1883.31 6163.22,1861.47 6169,1839.5C 6176.04,1836.95 6183.2,1835.12 6190.5,1834C 6196.39,1852.07 6202.06,1870.24 6207.5,1888.5C 6202.82,1894.02 6197.15,1898.18 6190.5,1901C 6054.35,1938.91 5918.19,1976.75 5782,2014.5C 5780.37,2014.37 5778.87,2013.87 5777.5,2013C 5759.46,1999.31 5740.13,1987.64 5719.5,1978C 5714.39,1976.48 5709.39,1974.81 5704.5,1973C 5755.84,1958.17 5807.17,1943.33 5858.5,1928.5C 5858.83,1929.17 5859.17,1929.83 5859.5,1930.5C 5853.99,1951.54 5848.32,1972.54 5842.5,1993.5C 5842.83,1994.17 5843.17,1994.83 5843.5,1995.5C 5858.41,1991.42 5873.07,1986.75 5887.5,1981.5C 5892.15,1965.22 5896.65,1948.88 5901,1932.5C 5901.42,1929.97 5902.59,1927.97 5904.5,1926.5 Z M 6184.5,1895.5 C 6181.5,1897.28 6178.16,1898.28 6174.5,1898.5C 6177.5,1896.72 6180.84,1895.72 6184.5,1895.5 Z"/></g>
<g><path style="opacity:0.894" fill="#323332" d="M 6118.5,1865.5 C 6114.13,1866.34 6109.79,1867.34 6105.5,1868.5C 6104.83,1868.5 6104.5,1868.83 6104.5,1869.5C 6103.5,1869.5 6102.5,1869.5 6101.5,1869.5C 6100.83,1869.5 6100.5,1869.83 6100.5,1870.5C 6099.83,1870.5 6099.17,1870.5 6098.5,1870.5C 6097.83,1870.5 6097.5,1870.83 6097.5,1871.5C 6096.5,1871.5 6095.5,1871.5 6094.5,1871.5C 6093.83,1871.5 6093.5,1871.83 6093.5,1872.5C 6092.83,1872.5 6092.17,1872.5 6091.5,1872.5C 6090.83,1872.5 6090.5,1872.83 6090.5,1873.5C 6089.83,1873.5 6089.17,1873.5 6088.5,1873.5C 6087.51,1873.33 6086.84,1873.66 6086.5,1874.5C 6085.83,1874.5 6085.17,1874.5 6084.5,1874.5C 6083.83,1874.5 6083.5,1874.83 6083.5,1875.5C 6082.83,1875.5 6082.17,1875.5 6081.5,1875.5C 6080.51,1875.33 6079.84,1875.66 6079.5,1876.5C 6079.17,1876.5 6078.83,1876.5 6078.5,1876.5C 6078.95,1872 6080.28,1867.83 6082.5,1864C 6095.75,1860.36 6108.92,1856.53 6122,1852.5C 6122.34,1857.3 6121.18,1861.63 6118.5,1865.5 Z"/></g>
<g><path style="opacity:0.967" fill="#323333" d="M 6017.5,1944.5 C 6003.9,1948.65 5990.23,1952.65 5976.5,1956.5C 5982.07,1933.9 5988.4,1911.57 5995.5,1889.5C 6008.66,1885.39 6021.83,1881.39 6035,1877.5C 6029.65,1899.89 6023.82,1922.22 6017.5,1944.5 Z"/></g>
<g><path style="opacity:0.89" fill="#323332" d="M 5943.5,1915.5 C 5941.9,1915.23 5940.57,1915.57 5939.5,1916.5C 5938.21,1916.26 5937.21,1916.6 5936.5,1917.5C 5934.9,1917.23 5933.57,1917.57 5932.5,1918.5C 5931.21,1918.26 5930.21,1918.6 5929.5,1919.5C 5927.9,1919.23 5926.57,1919.57 5925.5,1920.5C 5924.21,1920.26 5923.21,1920.6 5922.5,1921.5C 5920.9,1921.23 5919.57,1921.57 5918.5,1922.5C 5917.21,1922.26 5916.21,1922.6 5915.5,1923.5C 5913.9,1923.23 5912.57,1923.57 5911.5,1924.5C 5910.21,1924.26 5909.21,1924.6 5908.5,1925.5C 5907.21,1925.26 5906.21,1925.6 5905.5,1926.5C 5905.17,1926.5 5904.83,1926.5 5904.5,1926.5C 5903.86,1925.9 5903.53,1925.07 5903.5,1924C 5904.48,1920.89 5905.15,1917.72 5905.5,1914.5C 5919.83,1911.04 5933.99,1907.04 5948,1902.5C 5947.83,1906.19 5947.17,1909.85 5946,1913.5C 5945.01,1914.07 5944.17,1914.73 5943.5,1915.5 Z"/></g>
<g><path style="opacity:0.841" fill="#28333a" d="M 5652.5,1974.5 C 5721.15,1976.74 5775.65,2005.4 5816,2060.5C 5826.55,2082.23 5820.39,2097.07 5797.5,2105C 5750.5,2106.06 5703.5,2107.06 5656.5,2108C 5655.87,2108.75 5655.37,2109.58 5655,2110.5C 5654.75,2109.38 5654.25,2108.38 5653.5,2107.5C 5647.61,2107.24 5644.28,2104.24 5643.5,2098.5C 5644.32,2061.86 5644.82,2025.19 5645,1988.5C 5645.33,1985.17 5645.67,1981.83 5646,1978.5C 5648.01,1976.75 5650.18,1975.42 5652.5,1974.5 Z M 5689.5,2099.5 C 5690.96,2096.61 5691.79,2093.61 5692,2090.5C 5689.57,2082.81 5684.41,2080.31 5676.5,2083C 5670.53,2088.47 5670.2,2094.13 5675.5,2100C 5669.18,2100.5 5662.84,2100.67 5656.5,2100.5C 5656.53,2067.78 5655.36,2035.12 5653,2002.5C 5652.11,2035.2 5652.61,2067.87 5654.5,2100.5C 5650.23,2100.26 5648.9,2098.26 5650.5,2094.5C 5648.8,2056.18 5647.63,2017.85 5647,1979.5C 5650.56,1977.05 5654.56,1976.05 5659,1976.5C 5722.03,1984 5772.03,2013.34 5809,2064.5C 5817.29,2080.08 5813.13,2090.92 5796.5,2097C 5760.84,2098.22 5725.17,2099.06 5689.5,2099.5 Z M 5677.5,2024.5 C 5685.61,2023.56 5687.94,2026.73 5684.5,2034C 5676.68,2034.85 5674.35,2031.69 5677.5,2024.5 Z M 5778.5,2066.5 C 5784.29,2065.48 5787.12,2067.82 5787,2073.5C 5785.25,2077.38 5782.42,2078.38 5778.5,2076.5C 5777.38,2075.09 5776.38,2073.59 5775.5,2072C 5777.16,2070.51 5778.16,2068.68 5778.5,2066.5 Z M 5678.5,2086.5 C 5686.31,2086.14 5688.65,2089.48 5685.5,2096.5C 5680.7,2098.45 5677.7,2096.95 5676.5,2092C 5677.32,2090.2 5677.99,2088.37 5678.5,2086.5 Z"/></g>
<g><path style="opacity:0.659" fill="#28333a" d="M 5666.5,1984.5 C 5715.54,1991.44 5757.04,2013.1 5791,2049.5C 5795.66,2055.5 5799.5,2062 5802.5,2069C 5790.73,2051.9 5776.06,2037.23 5758.5,2025C 5730.43,2005.8 5699.76,1992.3 5666.5,1984.5 Z"/></g>
<g><path style="opacity:0.773" fill="#28333a" d="M 5676.5,2019.5 C 5679.85,2019.33 5683.18,2019.5 5686.5,2020C 5688.5,2023 5690.5,2026 5692.5,2029C 5690.83,2032 5689.17,2035 5687.5,2038C 5683.5,2038.67 5679.5,2038.67 5675.5,2038C 5672.7,2034.91 5671.2,2031.41 5671,2027.5C 5672.61,2024.59 5674.44,2021.93 5676.5,2019.5 Z M 5677.5,2024.5 C 5674.35,2031.69 5676.68,2034.85 5684.5,2034C 5687.94,2026.73 5685.61,2023.56 5677.5,2024.5 Z"/></g>
<g><path style="opacity:0.995" fill="#4ac3ed" d="M 2988.5,2031.5 C 3158.17,2031.5 3327.83,2031.5 3497.5,2031.5C 3497.5,2092.17 3497.5,2152.83 3497.5,2213.5C 3401.17,2213.5 3304.83,2213.5 3208.5,2213.5C 3208.5,2269.5 3208.5,2325.5 3208.5,2381.5C 3297.83,2381.5 3387.17,2381.5 3476.5,2381.5C 3476.5,2444.17 3476.5,2506.83 3476.5,2569.5C 3387.17,2569.5 3297.83,2569.5 3208.5,2569.5C 3208.5,2700.83 3208.5,2832.17 3208.5,2963.5C 3135.17,2963.5 3061.83,2963.5 2988.5,2963.5C 2988.5,2652.83 2988.5,2342.17 2988.5,2031.5 Z"/></g>
<g><path style="opacity:0.999" fill="#4ac3ed" d="M 3655.5,2031.5 C 3728.17,2031.5 3800.83,2031.5 3873.5,2031.5C 3873.5,2342.17 3873.5,2652.83 3873.5,2963.5C 3800.83,2963.5 3728.17,2963.5 3655.5,2963.5C 3655.5,2652.83 3655.5,2342.17 3655.5,2031.5 Z"/></g>
<g><path style="opacity:0.995" fill="#4ac3ed" d="M 4054.5,2031.5 C 4127.5,2031.5 4200.5,2031.5 4273.5,2031.5C 4273.5,2279.17 4273.5,2526.83 4273.5,2774.5C 4360.83,2774.5 4448.17,2774.5 4535.5,2774.5C 4535.5,2837.5 4535.5,2900.5 4535.5,2963.5C 4375.17,2963.5 4214.83,2963.5 4054.5,2963.5C 4054.5,2652.83 4054.5,2342.17 4054.5,2031.5 Z"/></g>
<g><path style="opacity:0.996" fill="#4ac3ed" d="M 4661.5,2031.5 C 4763.5,2031.5 4865.5,2031.5 4967.5,2031.5C 4994.81,2163.53 5022.31,2295.53 5050,2427.5C 5059.34,2498.88 5069.01,2570.21 5079,2641.5C 5089.56,2570.48 5100.22,2499.48 5111,2428.5C 5138.82,2296.22 5166.32,2163.88 5193.5,2031.5C 5294.5,2031.5 5395.5,2031.5 5496.5,2031.5C 5496.5,2342.17 5496.5,2652.83 5496.5,2963.5C 5427.83,2963.5 5359.17,2963.5 5290.5,2963.5C 5296.58,2726.83 5302.41,2490.17 5308,2253.5C 5259.43,2490.17 5210.93,2726.83 5162.5,2963.5C 5106.83,2963.5 5051.17,2963.5 4995.5,2963.5C 4947.19,2726.47 4898.69,2489.47 4850,2252.5C 4855.84,2489.49 4861.67,2726.49 4867.5,2963.5C 4798.83,2963.5 4730.17,2963.5 4661.5,2963.5C 4661.5,2652.83 4661.5,2342.17 4661.5,2031.5 Z"/></g>
<g><path style="opacity:0.947" fill="#28333a" d="M 6114.5,2033.5 C 6149.17,2033.33 6183.83,2033.5 6218.5,2034C 6220.73,2035.23 6222.23,2037.06 6223,2039.5C 6223.62,2060.83 6224.12,2082.17 6224.5,2103.5C 6087.83,2103.67 5951.17,2103.5 5814.5,2103C 5826.18,2096.13 5830.68,2085.97 5828,2072.5C 5824.25,2059.26 5817.75,2047.59 5808.5,2037.5C 5910.66,2035.91 6012.66,2034.58 6114.5,2033.5 Z M 6128.5,2037.5 C 6139.51,2037.33 6150.51,2037.5 6161.5,2038C 6173.42,2056.5 6185.08,2075.17 6196.5,2094C 6180.49,2094.83 6164.49,2094.67 6148.5,2093.5C 6137.36,2075.2 6126.03,2057.03 6114.5,2039C 6119.35,2038.83 6124.02,2038.33 6128.5,2037.5 Z M 5837.5,2040.5 C 5838.96,2039.84 5840.63,2039.51 5842.5,2039.5C 5857.17,2040.08 5871.83,2040.75 5886.5,2041.5C 5898.29,2060.25 5909.96,2079.08 5921.5,2098C 5905.84,2098.97 5890.17,2099.31 5874.5,2099C 5862.3,2079.33 5849.97,2059.83 5837.5,2040.5 Z M 6024.5,2039.5 C 6040.17,2039.33 6055.84,2039.5 6071.5,2040C 6082.83,2058 6094.17,2076 6105.5,2094C 6089.83,2094.59 6074.16,2094.92 6058.5,2095C 6046.52,2076.86 6035.18,2058.36 6024.5,2039.5 Z M 5932.5,2041.5 C 5948.34,2040.17 5964.34,2040.17 5980.5,2041.5C 5991.37,2059.42 6002.37,2077.25 6013.5,2095C 5997.89,2096.6 5982.22,2096.94 5966.5,2096C 5955.27,2077.69 5943.93,2059.52 5932.5,2041.5 Z M 6204.5,2043.5 C 6208.23,2042.18 6212.07,2042.18 6216,2043.5C 6216.5,2084.81 6216,2084.81 6214.5,2043.5C 6211.17,2043.5 6207.83,2043.5 6204.5,2043.5 Z"/></g>
<g><path style="opacity:0.796" fill="#28333a" d="M 5775.5,2062.5 C 5779.77,2062.2 5783.93,2062.54 5788,2063.5C 5789.52,2066.34 5791.02,2069.18 5792.5,2072C 5791.35,2075.31 5789.68,2078.31 5787.5,2081C 5783.46,2081.83 5779.46,2081.66 5775.5,2080.5C 5773.71,2077.75 5772.04,2074.92 5770.5,2072C 5772.83,2069.17 5774.5,2066.01 5775.5,2062.5 Z M 5778.5,2066.5 C 5778.16,2068.68 5777.16,2070.51 5775.5,2072C 5776.38,2073.59 5777.38,2075.09 5778.5,2076.5C 5782.42,2078.38 5785.25,2077.38 5787,2073.5C 5787.12,2067.82 5784.29,2065.48 5778.5,2066.5 Z"/></g>
<g><path style="opacity:0.988" fill="#29333b" d="M 6197.5,2381.5 C 6200.14,2379.69 6202.31,2377.36 6204,2374.5C 6209.47,2327.58 6203.47,2282.25 6186,2238.5C 6164.35,2193.19 6130.52,2160.35 6084.5,2140C 6056.22,2128.6 6026.89,2121.6 5996.5,2119C 5941.51,2112.86 5886.84,2114.86 5832.5,2125C 5739.38,2145.79 5683.88,2202.95 5666,2296.5C 5664.6,2306.95 5663.43,2317.29 5662.5,2327.5C 5661.89,2255.17 5661.23,2182.83 5660.5,2110.5C 5847.5,2110.5 6034.5,2110.5 6221.5,2110.5C 6222.7,2192.5 6223.53,2274.5 6224,2356.5C 6220.17,2370.16 6211.34,2378.49 6197.5,2381.5 Z"/></g>
<g><path style="opacity:0.996" fill="#49c2ec" d="M 6197.5,2381.5 C 6134.5,2381.5 6071.5,2381.5 6008.5,2381.5C 6009.49,2358.98 6007.99,2336.65 6004,2314.5C 5992.77,2266.6 5962.94,2246.76 5914.5,2255C 5893.26,2261.24 5878.76,2274.74 5871,2295.5C 5862.39,2322.38 5867.39,2346.38 5886,2367.5C 5908.68,2391.57 5934.51,2411.41 5963.5,2427C 6006.82,2450.66 6049.49,2475.32 6091.5,2501C 6112.35,2514.85 6132.35,2529.85 6151.5,2546C 6181.17,2575.15 6200,2610.32 6208,2651.5C 6219.33,2710.83 6214.67,2768.83 6194,2825.5C 6171.7,2877.46 6134.87,2915.3 6083.5,2939C 6038.26,2957.76 5991.26,2967.26 5942.5,2967.5C 5936.17,2967.5 5929.83,2967.5 5923.5,2967.5C 5876.99,2967.14 5831.66,2959.3 5787.5,2944C 5717.02,2915.85 5673.52,2864.68 5657,2790.5C 5649.31,2750.45 5647.48,2710.11 5651.5,2669.5C 5718.5,2669.5 5785.5,2669.5 5852.5,2669.5C 5851.24,2698.71 5853.07,2727.71 5858,2756.5C 5865.76,2796.58 5890.09,2816.58 5931,2816.5C 5963.01,2816.52 5985.68,2802.18 5999,2773.5C 6007.77,2748.07 6006.1,2723.4 5994,2699.5C 5980.21,2678.04 5962.71,2660.21 5941.5,2646C 5903.33,2622.75 5865,2599.75 5826.5,2577C 5796.12,2558.15 5766.79,2537.81 5738.5,2516C 5712.49,2495.31 5693.33,2469.48 5681,2438.5C 5667.07,2402.82 5660.9,2365.82 5662.5,2327.5C 5663.43,2317.29 5664.6,2306.95 5666,2296.5C 5683.88,2202.95 5739.38,2145.79 5832.5,2125C 5886.84,2114.86 5941.51,2112.86 5996.5,2119C 6026.89,2121.6 6056.22,2128.6 6084.5,2140C 6130.52,2160.35 6164.35,2193.19 6186,2238.5C 6203.47,2282.25 6209.47,2327.58 6204,2374.5C 6202.31,2377.36 6200.14,2379.69 6197.5,2381.5 Z"/></g>
</svg>
