<?xml version="1.0" standalone="no"?>
<!DOCTYPE svg PUBLIC "-//W3C//DTD SVG 20010904//EN"
 "http://www.w3.org/TR/2001/REC-SVG-20010904/DTD/svg10.dtd">
<svg version="1.0" xmlns="http://www.w3.org/2000/svg"
 width="512.000000pt" height="512.000000pt" viewBox="0 0 512.000000 512.000000"
 preserveAspectRatio="xMidYMid meet">

<g transform="translate(0.000000,512.000000) scale(0.100000,-0.100000)"
fill="#000000" stroke="none">
<path d="M2803 3596 c-12 -9 -38 -42 -57 -74 -53 -88 -63 -94 -163 -101 -69
-5 -88 -9 -91 -22 -2 -11 9 -19 36 -27 21 -6 49 -23 62 -37 21 -22 22 -26 8
-42 -8 -10 -28 -39 -43 -65 -23 -42 -31 -48 -60 -48 -56 0 -58 -46 -2 -71 30
-13 32 -18 38 -77 5 -53 11 -69 37 -94 27 -28 39 -32 107 -37 76 -7 78 -7 122
-54 l45 -48 -25 -20 c-53 -41 -106 -53 -237 -53 -115 -1 -129 1 -182 26 -75
35 -153 105 -137 124 6 8 21 14 33 14 39 0 64 12 69 32 6 20 -8 170 -19 215
-4 13 -12 23 -20 23 -18 0 -29 47 -16 63 7 8 9 36 5 71 -5 52 -8 57 -27 52
-12 -3 -28 -6 -37 -6 -12 0 -14 -9 -9 -57 4 -31 12 -59 18 -61 7 -2 12 -13 12
-23 0 -11 -4 -18 -8 -15 -5 3 -20 -1 -35 -9 -16 -8 -29 -10 -32 -4 -10 16 -61
10 -79 -10 -11 -12 -31 -19 -62 -19 -59 -2 -101 -34 -106 -82 -2 -27 -8 -36
-25 -38 -12 -2 -27 -10 -33 -18 -18 -21 -58 -17 -70 6 -12 23 -20 25 -43 7
-17 -12 -17 -17 4 -105 16 -71 25 -92 37 -92 30 0 45 16 37 39 -5 16 -2 21 12
22 10 0 39 2 64 4 42 4 47 1 58 -22 9 -20 16 -24 35 -19 26 6 36 -8 36 -47 0
-12 -16 -85 -36 -162 -31 -120 -37 -159 -39 -275 l-3 -135 8 135 c6 105 16
166 45 275 23 91 35 153 32 178 -4 31 -2 37 14 37 16 0 19 -8 19 -52 0 -29 -7
-96 -16 -148 -31 -194 -35 -380 -9 -482 6 -25 4 -28 -18 -28 -28 0 -45 17 -57
57 -6 20 -8 23 -9 8 -1 -11 6 -33 14 -49 9 -16 14 -29 13 -30 -55 -21 -119
-70 -225 -174 -106 -105 -151 -141 -258 -207 -130 -80 -207 -147 -307 -267
-27 -31 -70 -71 -97 -89 -48 -31 -49 -32 -34 -55 14 -22 14 -24 -1 -30 -36
-14 -63 6 -103 73 -48 82 -52 93 -64 162 -14 87 -51 89 -86 4 -37 -87 -36
-166 2 -255 6 -16 0 -18 -58 -18 -35 0 -104 7 -153 16 -87 15 -89 15 -103 -5
-13 -20 -14 -20 -50 -2 -48 25 -65 46 -91 111 -17 41 -23 78 -24 144 -1 59 -5
91 -13 93 -23 8 -61 -28 -94 -90 -31 -56 -34 -70 -34 -142 0 -63 5 -90 22
-126 13 -25 26 -74 29 -110 11 -105 45 -149 116 -149 30 0 42 6 60 30 24 33
57 40 59 13 3 -37 20 85 22 154 1 39 5 74 8 77 3 4 46 0 94 -9 48 -8 117 -15
154 -15 63 0 67 -1 93 -34 30 -38 40 -59 57 -123 6 -23 23 -51 37 -62 l26 -20
-74 -4 c-40 -1 26 -3 147 -3 121 0 178 2 127 3 l-93 4 16 22 c8 12 15 29 15
38 0 19 65 86 93 95 14 4 29 -4 56 -30 40 -39 55 -44 68 -22 4 7 42 42 83 76
41 34 89 77 105 95 30 33 31 33 140 39 61 4 157 15 215 25 142 25 106 26 -60
1 -74 -11 -162 -20 -195 -20 l-60 0 90 51 c101 58 147 93 253 193 40 38 74 67
76 65 2 -2 21 -38 41 -79 21 -41 51 -94 66 -117 33 -47 34 -46 -56 -59 -27 -4
-45 -9 -38 -11 6 -2 38 1 69 6 l58 11 41 -39 c22 -21 65 -54 95 -71 30 -18
100 -77 155 -130 55 -54 114 -105 130 -114 29 -15 25 -15 -95 -17 l-125 -3
170 -7 c94 -3 206 -9 250 -12 44 -2 67 -3 50 -1 -243 32 -256 37 -372 158 -57
60 -114 107 -163 136 -91 55 -146 120 -220 262 l-53 102 44 39 c24 22 34 35
21 28 -12 -6 -69 -59 -127 -116 -111 -110 -186 -168 -298 -229 -37 -20 -84
-55 -105 -78 -20 -22 -77 -74 -125 -115 l-88 -75 -49 44 c-26 24 -48 46 -49
50 -1 3 23 24 51 45 29 21 81 63 114 94 34 30 91 70 127 87 112 56 208 126
334 245 119 112 200 177 222 177 6 0 18 -18 27 -40 9 -23 18 -39 20 -37 2 2
-4 22 -13 45 -10 27 -22 42 -33 42 -25 0 -99 -59 -225 -178 -130 -123 -198
-173 -320 -237 -49 -26 -115 -71 -145 -99 -30 -28 -71 -62 -90 -75 -19 -14
-47 -35 -62 -49 -26 -24 -28 -24 -53 -8 -14 9 -25 20 -25 24 0 9 59 57 120 99
25 17 60 47 78 67 20 22 82 61 155 98 111 57 129 70 232 173 122 121 284 250
328 261 40 9 62 -14 118 -133 46 -96 52 -103 108 -137 75 -46 112 -88 160
-184 43 -85 62 -106 106 -116 16 -4 51 -27 77 -52 30 -28 56 -44 70 -43 22 2
22 2 1 6 -11 2 -42 24 -67 48 -26 24 -61 47 -79 50 -46 10 -54 19 -103 116
-47 95 -92 148 -153 178 -53 28 -84 68 -117 152 -32 81 -71 129 -106 129 -44
0 -191 -113 -358 -275 -105 -101 -126 -117 -237 -173 -70 -36 -131 -74 -145
-91 -13 -16 -62 -58 -111 -94 l-87 -66 -20 39 c-11 21 -25 42 -30 45 -6 4 8
19 32 34 41 27 89 76 186 190 30 34 97 87 205 158 130 85 188 131 289 230 76
73 145 132 170 143 51 23 105 25 132 5 11 -8 29 -15 41 -15 25 0 125 -101 223
-227 118 -149 208 -225 326 -274 33 -13 72 -36 89 -51 16 -16 39 -28 51 -28
21 0 22 -4 18 -58 -3 -39 1 -70 12 -97 20 -47 15 -52 -64 -60 -70 -8 -85 -13
-40 -14 19 0 55 4 79 10 39 9 47 7 66 -11 32 -30 43 -24 12 8 -14 15 -33 44
-41 64 -18 42 -21 133 -6 143 5 3 42 -8 82 -26 40 -17 102 -35 141 -40 38 -5
86 -13 106 -19 47 -13 131 -13 131 0 0 6 -7 25 -16 43 -30 57 -41 327 -22 526
12 129 14 220 8 406 -9 289 -14 311 -102 397 -32 32 -58 60 -58 63 0 3 9 14
20 25 11 11 20 31 20 44 0 21 5 24 27 23 22 -2 29 3 31 21 3 16 10 22 28 22
36 0 62 16 79 50 33 63 3 125 -65 136 -22 4 -49 17 -62 31 -20 21 -23 34 -21
89 1 35 7 82 13 105 9 33 8 45 -4 64 -21 32 -82 67 -196 110 -112 44 -185 54
-217 31z m-128 -320 c53 -19 104 -64 98 -86 -3 -11 0 -26 6 -34 10 -11 17 -9
41 15 30 31 76 39 98 17 15 -15 16 -53 2 -79 -14 -26 -67 -51 -90 -44 -17 5
-20 2 -20 -21 0 -15 10 -38 22 -51 22 -23 58 -31 58 -13 0 21 16 9 27 -20 13
-34 51 -42 73 -15 19 23 26 19 44 -27 l17 -43 -28 -22 c-17 -14 -42 -23 -63
-23 -19 0 -53 -5 -75 -11 -38 -11 -40 -10 -68 25 -39 49 -75 66 -139 66 -62 0
-113 27 -129 66 -11 31 -11 32 22 38 13 2 25 5 27 5 2 1 0 6 -4 12 -4 8 -9 8
-17 0 -21 -21 -37 -12 -37 22 0 40 -7 50 -45 68 -41 19 -39 43 3 47 29 3 39
12 74 68 31 49 45 63 57 58 9 -4 30 -12 46 -18z m285 -74 c124 -43 143 -47
235 -48 126 -1 121 0 145 -24 28 -28 25 -72 -6 -109 -21 -25 -33 -31 -65 -31
-37 0 -39 -2 -33 -25 6 -23 4 -25 -25 -19 -29 6 -31 5 -31 -23 0 -39 -16 -53
-60 -53 -41 0 -64 19 -81 68 -13 37 -20 38 -61 15 -29 -17 -31 -17 -42 0 -30
49 -33 52 -49 39 -18 -15 -44 -6 -57 19 -16 29 -12 36 24 43 66 13 110 100 70
140 -24 24 -77 20 -108 -9 -35 -32 -39 -31 -31 5 6 25 3 31 -19 41 -14 7 -26
16 -26 20 0 15 90 -5 220 -49z m-670 -53 c21 -38 11 -137 -20 -217 l-31 -76
20 -85 c30 -129 51 -268 51 -343 0 -38 2 -68 5 -68 2 0 39 21 80 47 l76 47 23
-25 c20 -20 96 -178 96 -200 0 -19 -286 -114 -375 -124 -89 -10 -108 1 -128
72 -23 82 -22 264 3 433 33 223 33 232 -30 310 -24 30 -44 129 -35 172 6 28 5
29 -15 23 -14 -4 -20 -3 -16 3 3 5 28 10 55 10 47 2 50 0 54 -26 4 -25 4 -25
6 5 1 35 23 63 49 63 26 0 37 -12 50 -50 l12 -35 -5 36 c-5 30 -2 37 17 46 28
12 45 7 58 -18z m560 -415 c0 -8 -5 -12 -10 -9 -6 4 -8 11 -5 16 9 14 15 11
15 -7z m371 -7 c-13 -13 -26 -3 -16 12 3 6 11 8 17 5 6 -4 6 -10 -1 -17z
m-781 -63 c63 -16 174 -15 265 2 l30 5 -39 -35 c-49 -45 -101 -63 -198 -71
l-77 -7 -3 -36 c-2 -28 -10 -41 -37 -59 -19 -13 -39 -23 -45 -23 -6 0 -18 51
-29 123 -10 67 -20 135 -23 150 l-6 28 48 -30 c27 -17 78 -38 114 -47z m660
62 c0 -8 -4 -17 -9 -21 -12 -7 -24 12 -16 25 9 15 25 12 25 -4z m-290 -56 c0
-5 -4 -10 -10 -10 -5 0 -10 5 -10 10 0 6 5 10 10 10 6 0 10 -4 10 -10z m120
-10 c0 -5 -4 -10 -10 -10 -5 0 -10 5 -10 10 0 6 5 10 10 10 6 0 10 -4 10 -10z
m100 0 c0 -5 -7 -10 -15 -10 -8 0 -15 5 -15 10 0 6 7 10 15 10 8 0 15 -4 15
-10z m-180 -20 c0 -5 -4 -10 -10 -10 -5 0 -10 5 -10 10 0 6 5 10 10 10 6 0 10
-4 10 -10z m380 -20 c0 -5 -7 -10 -15 -10 -8 0 -15 5 -15 10 0 6 7 10 15 10 8
0 15 -4 15 -10z m60 -50 c0 -5 -4 -10 -10 -10 -5 0 -10 5 -10 10 0 6 5 10 10
10 6 0 10 -4 10 -10z m-190 -15 c0 -8 -7 -15 -15 -15 -8 0 -15 7 -15 15 0 8 7
15 15 15 8 0 15 -7 15 -15z m-470 -25 c0 -5 -4 -10 -10 -10 -5 0 -10 5 -10 10
0 6 5 10 10 10 6 0 10 -4 10 -10z m160 -10 c0 -5 -4 -10 -10 -10 -5 0 -10 5
-10 10 0 6 5 10 10 10 6 0 10 -4 10 -10z m431 -33 c-1 -12 -15 -9 -19 4 -3 6
1 10 8 8 6 -3 11 -8 11 -12z m-767 -27 c-5 -4 -34 -24 -65 -44 -53 -33 -57
-34 -62 -15 -4 16 7 26 61 53 37 19 69 30 71 24 2 -5 -1 -13 -5 -18z m436 20
c0 -5 -7 -10 -15 -10 -8 0 -15 5 -15 10 0 6 7 10 15 10 8 0 15 -4 15 -10z
m-260 -10 c0 -5 -4 -10 -10 -10 -5 0 -10 5 -10 10 0 6 5 10 10 10 6 0 10 -4
10 -10z m530 -30 c0 -5 -4 -10 -10 -10 -5 0 -10 5 -10 10 0 6 5 10 10 10 6 0
10 -4 10 -10z m-170 -10 c0 -5 -7 -10 -15 -10 -8 0 -15 5 -15 10 0 6 7 10 15
10 8 0 15 -4 15 -10z m-180 -25 c0 -8 -4 -15 -10 -15 -5 0 -10 7 -10 15 0 8 5
15 10 15 6 0 10 -7 10 -15z m270 -45 c0 -5 -4 -10 -10 -10 -5 0 -10 5 -10 10
0 6 5 10 10 10 6 0 10 -4 10 -10z m161 -3 c-1 -12 -15 -9 -19 4 -3 6 1 10 8 8
6 -3 11 -8 11 -12z m-471 -47 c0 -5 -4 -10 -10 -10 -5 0 -10 5 -10 10 0 6 5
10 10 10 6 0 10 -4 10 -10z m408 -1 c-2 -6 -8 -10 -13 -10 -5 0 -11 4 -13 10
-2 6 4 11 13 11 9 0 15 -5 13 -11z m-218 -14 c0 -8 -7 -15 -15 -15 -16 0 -20
12 -8 23 11 12 23 8 23 -8z m230 -35 c0 -5 -5 -10 -11 -10 -5 0 -7 5 -4 10 3
6 8 10 11 10 2 0 4 -4 4 -10z m-370 -20 c0 -5 -4 -10 -10 -10 -5 0 -10 5 -10
10 0 6 5 10 10 10 6 0 10 -4 10 -10z m130 -40 c0 -5 -4 -10 -10 -10 -5 0 -10
5 -10 10 0 6 5 10 10 10 6 0 10 -4 10 -10z m-245 -10 c-3 -5 -10 -10 -16 -10
-5 0 -9 5 -9 10 0 6 7 10 16 10 8 0 12 -4 9 -10z m-60 -72 c4 -45 0 -119 -9
-193 -9 -66 -16 -157 -16 -203 l0 -83 -28 20 c-54 38 -148 136 -225 233 -43
54 -100 120 -128 148 -27 27 -46 50 -42 50 28 1 156 34 233 60 87 30 93 31
110 15 18 -16 21 -16 52 3 18 11 36 21 40 21 3 1 9 -32 13 -71z m462 36 c-9
-9 -28 6 -21 18 4 6 10 6 17 -1 6 -6 8 -13 4 -17z m-367 -9 c0 -8 -7 -15 -15
-15 -16 0 -20 12 -8 23 11 12 23 8 23 -8z m300 5 c0 -5 -4 -10 -10 -10 -5 0
-10 5 -10 10 0 6 5 10 10 10 6 0 10 -4 10 -10z m202 -5 c0 -5 -5 -11 -11 -13
-6 -2 -11 4 -11 13 0 9 5 15 11 13 6 -2 11 -8 11 -13z m-417 -75 c-5 -8 -11
-8 -17 -2 -6 6 -7 16 -3 22 5 8 11 8 17 2 6 -6 7 -16 3 -22z m465 10 c0 -5 -4
-10 -10 -10 -5 0 -10 5 -10 10 0 6 5 10 10 10 6 0 10 -4 10 -10z m-240 -55 c0
-8 -4 -15 -10 -15 -5 0 -10 7 -10 15 0 8 5 15 10 15 6 0 10 -7 10 -15z m-280
-10 c0 -8 -4 -15 -10 -15 -5 0 -10 7 -10 15 0 8 5 15 10 15 6 0 10 -7 10 -15z
m196 -7 c-3 -7 -9 -21 -12 -31 -8 -21 -28 -17 -32 6 -2 10 3 17 12 17 9 0 16
5 16 10 0 6 5 10 11 10 6 0 8 -6 5 -12z m164 -63 c0 -8 -4 -15 -10 -15 -5 0
-10 7 -10 15 0 8 5 15 10 15 6 0 10 -7 10 -15z m100 0 c0 -8 -7 -15 -15 -15
-8 0 -15 7 -15 15 0 8 7 15 15 15 8 0 15 -7 15 -15z m-480 -21 c0 -9 -5 -14
-12 -12 -18 6 -21 28 -4 28 9 0 16 -7 16 -16z m160 -48 c0 -3 -4 -8 -10 -11
-5 -3 -10 -1 -10 4 0 6 5 11 10 11 6 0 10 -2 10 -4z m201 -49 c-1 -12 -15 -9
-19 4 -3 6 1 10 8 8 6 -3 11 -8 11 -12z m-301 -17 c0 -5 -4 -10 -10 -10 -5 0
-10 5 -10 10 0 6 5 10 10 10 6 0 10 -4 10 -10z m450 -20 c0 -5 -5 -10 -11 -10
-5 0 -7 5 -4 10 3 6 8 10 11 10 2 0 4 -4 4 -10z m-600 -15 c0 -8 -4 -15 -9
-15 -13 0 -22 16 -14 24 11 11 23 6 23 -9z m310 -10 c0 -8 -6 -15 -14 -15 -17
0 -28 14 -19 24 12 12 33 6 33 -9z m280 -31 c0 -9 -5 -14 -12 -12 -18 6 -21
28 -4 28 9 0 16 -7 16 -16z m-388 -49 c0 -5 -5 -11 -11 -13 -6 -2 -11 4 -11
13 0 9 5 15 11 13 6 -2 11 -8 11 -13z m283 5 c-3 -5 -10 -10 -16 -10 -5 0 -9
5 -9 10 0 6 7 10 16 10 8 0 12 -4 9 -10z m-465 -4 c0 -11 -19 -15 -25 -6 -3 5
1 10 9 10 9 0 16 -2 16 -4z m416 -11 c-3 -9 0 -15 9 -15 8 0 15 -4 15 -10 0
-16 -22 -12 -36 8 -18 23 -17 32 2 32 10 0 14 -6 10 -15z m-86 -51 c0 -8 -5
-12 -10 -9 -6 4 -8 11 -5 16 9 14 15 11 15 -7z m-260 -10 c0 -9 -5 -14 -12
-12 -18 6 -21 28 -4 28 9 0 16 -7 16 -16z m-2396 -80 c-3 -66 -7 -79 -29 -100
-45 -42 -24 -96 28 -69 35 18 43 4 26 -47 -11 -35 -11 -47 5 -92 10 -28 31
-73 47 -99 32 -52 31 -80 -2 -97 -44 -24 -104 44 -115 127 -3 32 -16 81 -27
108 -24 62 -26 172 -3 234 14 39 60 111 71 111 2 0 1 -34 -1 -76z m565 -116
c-23 -31 -24 -61 -4 -78 12 -10 20 -8 41 9 35 28 46 13 38 -50 -8 -59 9 -91
81 -157 58 -53 64 -74 30 -102 -23 -19 -104 24 -121 66 -8 18 -14 41 -14 51 0
10 -13 34 -29 53 -61 74 -76 117 -76 215 0 70 4 98 19 125 l19 35 18 -70 c16
-68 16 -71 -2 -97z m1971 141 c0 -5 -7 -9 -15 -9 -15 0 -20 12 -9 23 8 8 24
-1 24 -14z m178 3 c2 -7 -3 -12 -12 -12 -9 0 -16 7 -16 16 0 17 22 14 28 -4z
m167 8 c3 -5 -1 -10 -10 -10 -9 0 -13 5 -10 10 3 6 8 10 10 10 2 0 7 -4 10
-10z m53 -31 c-2 -6 -8 -10 -13 -10 -5 0 -11 4 -13 10 -2 6 4 11 13 11 9 0 15
-5 13 -11z m-128 -59 c0 -5 -4 -10 -10 -10 -5 0 -10 5 -10 10 0 6 5 10 10 10
6 0 10 -4 10 -10z m30 -20 c0 -5 -4 -10 -10 -10 -5 0 -10 5 -10 10 0 6 5 10
10 10 6 0 10 -4 10 -10z m60 0 c0 -5 -7 -10 -15 -10 -8 0 -15 5 -15 10 0 6 7
10 15 10 8 0 15 -4 15 -10z m-2881 -42 c7 -17 5 -26 -7 -35 -41 -32 -70 0 -35
39 21 24 32 23 42 -4z m601 -35 c0 -15 -37 -36 -50 -28 -15 9 -12 27 7 54 15
23 17 23 30 6 7 -11 13 -25 13 -32z m-515 -100 l55 -37 0 -77 c0 -62 -3 -78
-16 -83 -20 -8 -15 -13 -57 56 -38 63 -63 139 -54 163 8 20 9 20 72 -22z m632
7 c24 0 35 -6 43 -22 7 -13 27 -37 46 -53 l35 -30 -39 -38 -38 -38 -40 31
c-44 36 -94 104 -94 131 0 9 3 24 6 33 5 14 8 14 27 1 12 -8 36 -15 54 -15z"/>
<path d="M2580 3208 c0 -21 34 -41 58 -35 12 3 11 5 -5 6 -12 0 -29 11 -37 23
-13 18 -16 19 -16 6z"/>
<path d="M2897 3151 c3 -11 0 -28 -7 -36 -8 -10 -9 -15 -1 -15 15 0 26 49 13
62 -8 8 -9 5 -5 -11z"/>
<path d="M3036 3123 c-6 -14 -5 -15 5 -6 7 7 10 15 7 18 -3 3 -9 -2 -12 -12z"/>
<path d="M3283 3116 c7 -14 15 -22 19 -20 14 9 9 23 -11 33 -17 10 -18 8 -8
-13z"/>
<path d="M3176 3095 c-3 -8 -1 -15 4 -15 13 0 22 18 11 24 -5 3 -11 -1 -15 -9z"/>
<path d="M2925 3040 c3 -5 16 -10 28 -9 21 0 21 1 2 9 -28 12 -37 12 -30 0z"/>
<path d="M3105 3030 c-4 -7 -18 -9 -32 -5 -16 4 -22 2 -18 -5 8 -13 52 -13 60
1 4 6 5 13 2 15 -3 3 -8 0 -12 -6z"/>
<path d="M3136 2910 c-15 -5 -16 -9 -7 -14 7 -5 18 -3 24 3 14 14 6 20 -17 11z"/>
<path d="M2154 1725 c28 -59 51 -81 130 -125 40 -23 67 -47 87 -78 16 -25 29
-41 29 -35 0 28 -64 94 -126 129 -47 26 -74 49 -93 79 -46 75 -52 81 -27 30z"/>
<path d="M2406 1450 c18 -71 85 -140 134 -140 22 0 45 -14 85 -50 30 -27 61
-50 68 -50 6 0 3 6 -8 12 -11 6 -41 31 -67 55 -31 28 -56 43 -74 43 -40 0 -93
46 -120 104 -14 28 -21 40 -18 26z"/>
<path d="M3231 1370 c-3 -59 -57 -144 -137 -216 -108 -96 -135 -115 -191 -130
-33 -8 -40 -13 -22 -13 40 -1 110 39 196 115 110 95 174 196 160 251 -3 12 -5
10 -6 -7z"/>
<path d="M2920 1245 l-35 -13 56 2 c46 1 53 3 40 13 -18 14 -16 14 -61 -2z"/>
<path d="M2815 1220 c-27 -7 -27 -8 -5 -8 14 0 36 4 50 8 20 6 21 8 5 8 -11 0
-33 -4 -50 -8z"/>
<path d="M2728 1203 c12 -2 30 -2 40 0 9 3 -1 5 -23 4 -22 0 -30 -2 -17 -4z"/>
<path d="M693 1023 c32 -2 81 -2 110 0 29 2 3 3 -58 3 -60 0 -84 -1 -52 -3z"/>
<path d="M1398 1023 c50 -2 134 -2 185 0 50 1 9 3 -93 3 -102 0 -143 -2 -92
-3z"/>
<path d="M563 1013 c15 -2 37 -2 50 0 12 2 0 4 -28 4 -27 0 -38 -2 -22 -4z"/>
<path d="M1708 1013 c17 -2 47 -2 65 0 17 2 3 4 -33 4 -36 0 -50 -2 -32 -4z"/>
<path d="M2240 1010 c-27 -6 -29 -8 -10 -8 14 -1 43 3 65 7 33 7 35 9 10 9
-16 -1 -46 -4 -65 -8z"/>
<path d="M1858 1003 c23 -2 59 -2 80 0 20 2 1 4 -43 4 -44 0 -61 -2 -37 -4z"/>
<path d="M2033 993 c31 -2 83 -2 115 0 31 2 5 3 -58 3 -63 0 -89 -1 -57 -3z"/>
</g>
</svg>
